<svg width="56" height="56" viewBox="0 0 56 56" fill="none" xmlns="http://www.w3.org/2000/svg">
<rect width="56" height="56" rx="12" fill="#25ADBF" fill-opacity="0.1"/>
<path d="M33.5291 23.77C33.4591 23.76 33.3891 23.76 33.3191 23.77C31.7691 23.72 30.5391 22.45 30.5391 20.89C30.5391 19.3 31.8291 18 33.4291 18C35.0191 18 36.3191 19.29 36.3191 20.89C36.3091 22.45 35.0791 23.72 33.5291 23.77Z" fill="#004BDE"/>
<path d="M36.7896 30.7004C35.6696 31.4504 34.0996 31.7304 32.6496 31.5404C33.0296 30.7204 33.2296 29.8104 33.2396 28.8504C33.2396 27.8504 33.0196 26.9004 32.5996 26.0704C34.0796 25.8704 35.6496 26.1504 36.7796 26.9004C38.3596 27.9404 38.3596 29.6504 36.7896 30.7004Z" fill="#004BDE"/>
<path d="M22.4402 23.77C22.5102 23.76 22.5802 23.76 22.6502 23.77C24.2002 23.72 25.4302 22.45 25.4302 20.89C25.4302 19.29 24.1402 18 22.5402 18C20.9502 18 19.6602 19.29 19.6602 20.89C19.6602 22.45 20.8902 23.72 22.4402 23.77Z" fill="#004BDE"/>
<path d="M22.5491 28.8496C22.5491 29.8196 22.7591 30.7396 23.1391 31.5696C21.7291 31.7196 20.2591 31.4196 19.1791 30.7096C17.5991 29.6596 17.5991 27.9496 19.1791 26.8996C20.2491 26.1796 21.7591 25.8896 23.1791 26.0496C22.7691 26.8896 22.5491 27.8396 22.5491 28.8496Z" fill="#004BDE"/>
<path d="M28.1208 31.87C28.0408 31.86 27.9508 31.86 27.8608 31.87C26.0208 31.81 24.5508 30.3 24.5508 28.44C24.5608 26.54 26.0908 25 28.0008 25C29.9008 25 31.4408 26.54 31.4408 28.44C31.4308 30.3 29.9708 31.81 28.1208 31.87Z" fill="#004BDE"/>
<path d="M24.8708 33.9396C23.3608 34.9496 23.3608 36.6096 24.8708 37.6096C26.5908 38.7596 29.4108 38.7596 31.1308 37.6096C32.6408 36.5996 32.6408 34.9396 31.1308 33.9396C29.4208 32.7896 26.6008 32.7896 24.8708 33.9396Z" fill="#004BDE"/>
</svg>
