<svg width="24" height="25" viewBox="0 0 24 25" fill="none" xmlns="http://www.w3.org/2000/svg">
<path d="M12 5.18848C14.0766 5.18848 16.0312 5.99941 17.5031 7.4666C18.9703 8.93848 19.7812 10.8932 19.7812 12.9697C19.7812 15.0463 18.9703 17.001 17.5031 18.4728C16.0312 19.94 14.0766 20.751 12 20.751C9.92344 20.751 7.96875 19.94 6.49687 18.4728C5.02969 17.001 4.21875 15.0463 4.21875 12.9697C4.21875 10.8932 5.02969 8.93848 6.49687 7.4666C7.96875 5.99941 9.92344 5.18848 12 5.18848ZM12 3.21973C6.61406 3.21973 2.25 7.58379 2.25 12.9697C2.25 18.3557 6.61406 22.7197 12 22.7197C17.3859 22.7197 21.75 18.3557 21.75 12.9697C21.75 7.58379 17.3859 3.21973 12 3.21973Z" fill="white"/>
<path d="M12.9844 17.8447H11.0156V11.9854H12.9844V17.8447ZM12.9844 10.0635H11.0156V8.09473H12.9844V10.0635Z" fill="white"/>
</svg>
