<svg width="24" height="25" viewBox="0 0 24 25" fill="none" xmlns="http://www.w3.org/2000/svg">
<path d="M12 4.97559C14.0766 4.97559 16.0312 5.78652 17.5031 7.25371C18.9703 8.72559 19.7812 10.6803 19.7812 12.7568C19.7812 14.8334 18.9703 16.7881 17.5031 18.26C16.0312 19.7271 14.0766 20.5381 12 20.5381C9.92344 20.5381 7.96875 19.7271 6.49687 18.26C5.02969 16.7881 4.21875 14.8334 4.21875 12.7568C4.21875 10.6803 5.02969 8.72559 6.49687 7.25371C7.96875 5.78652 9.92344 4.97559 12 4.97559ZM12 3.00684C6.61406 3.00684 2.25 7.3709 2.25 12.7568C2.25 18.1428 6.61406 22.5068 12 22.5068C17.3859 22.5068 21.75 18.1428 21.75 12.7568C21.75 7.3709 17.3859 3.00684 12 3.00684Z" fill="#004BDE"/>
<path d="M12.9844 17.6318H11.0156V11.7725H12.9844V17.6318ZM12.9844 9.85059H11.0156V7.88184H12.9844V9.85059Z" fill="#004BDE"/>
</svg>
