<svg width="56" height="56" viewBox="0 0 56 56" fill="none" xmlns="http://www.w3.org/2000/svg">
<rect width="56" height="56" rx="12" fill="#F0EDFB"/>
<path d="M28.0001 20.6504C23.2201 20.6504 19.3301 24.5404 19.3301 29.3204C19.3301 34.1004 23.2201 38.0004 28.0001 38.0004C32.7801 38.0004 36.6701 34.1104 36.6701 29.3304C36.6701 24.5504 32.7801 20.6504 28.0001 20.6504ZM28.7501 29.0004C28.7501 29.4104 28.4101 29.7504 28.0001 29.7504C27.5901 29.7504 27.2501 29.4104 27.2501 29.0004V24.0004C27.2501 23.5904 27.5901 23.2504 28.0001 23.2504C28.4101 23.2504 28.7501 23.5904 28.7501 24.0004V29.0004Z" fill="#6649D9"/>
<path d="M30.8906 19.45H25.1106C24.7106 19.45 24.3906 19.13 24.3906 18.73C24.3906 18.33 24.7106 18 25.1106 18H30.8906C31.2906 18 31.6106 18.32 31.6106 18.72C31.6106 19.12 31.2906 19.45 30.8906 19.45Z" fill="#6649D9"/>
</svg>
