<svg width="57" height="56" viewBox="0 0 57 56" fill="none" xmlns="http://www.w3.org/2000/svg">
<path d="M56.5 28C56.5 41.9759 46.2603 53.5598 32.875 55.6598V36.0937H39.3992L40.6406 28H32.875V22.7478C32.875 20.533 33.96 18.375 37.4381 18.375H40.9688V11.4844C40.9688 11.4844 37.7641 10.9375 34.7005 10.9375C28.3053 10.9375 24.125 14.8137 24.125 21.8312V28H17.0156V36.0937H24.125V55.6598C10.7397 53.5598 0.5 41.9759 0.5 28C0.5 12.5366 13.0366 0 28.5 0C43.9634 0 56.5 12.5366 56.5 28Z" fill="#1877F2"/>
<path d="M39.3992 36.0938L40.6406 28H32.875V22.7477C32.875 20.5334 33.9598 18.375 37.438 18.375H40.9688V11.4844C40.9688 11.4844 37.7645 10.9375 34.701 10.9375C28.3052 10.9375 24.125 14.8138 24.125 21.8313V28H17.0156V36.0938H24.125V55.6597C25.5506 55.8834 27.0116 56 28.5 56C29.9884 56 31.4494 55.8834 32.875 55.6597V36.0938H39.3992Z" fill="white"/>
</svg>
