<svg width="57" height="56" viewBox="0 0 57 56" fill="none" xmlns="http://www.w3.org/2000/svg">
<g clip-path="url(#clip0_1_20670)">
<path d="M28.5 56C13.0384 56 0.5 43.4616 0.5 28C0.5 12.5384 13.0384 0 28.5 0C43.9616 0 56.5 12.5384 56.5 28C56.5 43.4616 43.9616 56 28.5 56Z" fill="url(#paint0_linear_1_20670)"/>
<path d="M28.5002 12.3312C33.6018 12.3312 34.2066 12.348 36.2226 12.4432C38.0874 12.5272 39.101 12.8408 39.773 13.104C40.6634 13.4512 41.3018 13.8656 41.9682 14.532C42.6346 15.1984 43.049 15.8368 43.3962 16.7272C43.6594 17.3992 43.9674 18.4128 44.057 20.2776C44.1466 22.2936 44.169 22.8984 44.169 28C44.169 33.1016 44.1522 33.7064 44.057 35.7224C43.973 37.5872 43.6594 38.6008 43.3962 39.2728C43.049 40.1632 42.6346 40.8016 41.9682 41.468C41.3018 42.1344 40.6634 42.5488 39.773 42.896C39.101 43.1592 38.0874 43.4672 36.2226 43.5568C34.2066 43.6464 33.6018 43.6688 28.5002 43.6688C23.3986 43.6688 22.7938 43.652 20.7778 43.5568C18.913 43.4728 17.8994 43.1592 17.2274 42.896C16.337 42.5488 15.6986 42.1344 15.0322 41.468C14.3658 40.8016 13.9514 40.1632 13.6042 39.2728C13.341 38.6008 13.033 37.5872 12.9434 35.7224C12.8538 33.7064 12.8314 33.1016 12.8314 28C12.8314 22.8984 12.8482 22.2936 12.9434 20.2776C13.0274 18.4128 13.341 17.3992 13.6042 16.7272C13.9514 15.8368 14.3658 15.1984 15.0322 14.532C15.6986 13.8656 16.337 13.4512 17.2274 13.104C17.8994 12.8408 18.913 12.5328 20.7778 12.4432C22.7938 12.348 23.3986 12.3312 28.5002 12.3312ZM28.5002 8.88721C23.309 8.88721 22.6594 8.90961 20.621 9.00481C18.5882 9.10001 17.1994 9.41921 15.9786 9.89521C14.7242 10.3768 13.6546 11.032 12.5962 12.096C11.5322 13.16 10.8826 14.224 10.3898 15.484C9.91944 16.6992 9.59464 18.088 9.49944 20.1264C9.40424 22.1648 9.38184 22.8144 9.38184 28.0056C9.38184 33.1968 9.40424 33.8464 9.49944 35.8848C9.59464 37.9176 9.91384 39.3064 10.3898 40.5272C10.877 41.776 11.5322 42.8456 12.5962 43.904C13.6602 44.968 14.7242 45.6176 15.9842 46.1104C17.1994 46.5808 18.5882 46.9056 20.6266 47.0008C22.665 47.096 23.3146 47.1184 28.5058 47.1184C33.697 47.1184 34.3466 47.096 36.385 47.0008C38.4178 46.9056 39.8066 46.5864 41.0274 46.1104C42.2762 45.6232 43.3458 44.968 44.4042 43.904C45.4682 42.84 46.1178 41.776 46.6106 40.516C47.081 39.3008 47.4058 37.912 47.501 35.8736C47.5962 33.8352 47.6186 33.1856 47.6186 27.9944C47.6186 22.8032 47.5962 22.1536 47.501 20.1152C47.4058 18.0824 47.0866 16.6936 46.6106 15.4728C46.1234 14.224 45.4682 13.1544 44.4042 12.096C43.3402 11.032 42.2762 10.3824 41.0162 9.88961C39.801 9.41921 38.4122 9.09441 36.3738 8.99921C34.341 8.90961 33.6914 8.88721 28.5002 8.88721Z" fill="white"/>
<path d="M28.5004 18.1832C23.0796 18.1832 18.6836 22.5792 18.6836 28C18.6836 33.4208 23.0796 37.8168 28.5004 37.8168C33.9212 37.8168 38.3172 33.4208 38.3172 28C38.3172 22.5792 33.9212 18.1832 28.5004 18.1832ZM28.5004 34.3728C24.9836 34.3728 22.1276 31.5224 22.1276 28C22.1276 24.4776 24.9836 21.6272 28.5004 21.6272C32.0172 21.6272 34.8732 24.4776 34.8732 28C34.8732 31.5224 32.0172 34.3728 28.5004 34.3728Z" fill="white"/>
<path d="M38.7032 20.0928C39.9713 20.0928 40.9992 19.0648 40.9992 17.7968C40.9992 16.5287 39.9713 15.5008 38.7032 15.5008C37.4352 15.5008 36.4072 16.5287 36.4072 17.7968C36.4072 19.0648 37.4352 20.0928 38.7032 20.0928Z" fill="white"/>
</g>
<defs>
<linearGradient id="paint0_linear_1_20670" x1="8.70103" y1="47.799" x2="48.299" y2="8.20103" gradientUnits="userSpaceOnUse">
<stop stop-color="#FFD521"/>
<stop offset="0.0551048" stop-color="#FFD020"/>
<stop offset="0.1241" stop-color="#FEC01E"/>
<stop offset="0.2004" stop-color="#FCA71B"/>
<stop offset="0.2821" stop-color="#FA8316"/>
<stop offset="0.3681" stop-color="#F85510"/>
<stop offset="0.4563" stop-color="#F51E09"/>
<stop offset="0.5" stop-color="#F30005"/>
<stop offset="0.5035" stop-color="#F20007"/>
<stop offset="0.5966" stop-color="#E1003B"/>
<stop offset="0.6879" stop-color="#D30067"/>
<stop offset="0.7757" stop-color="#C70088"/>
<stop offset="0.8589" stop-color="#BF00A0"/>
<stop offset="0.9357" stop-color="#BB00AF"/>
<stop offset="1" stop-color="#B900B4"/>
</linearGradient>
<clipPath id="clip0_1_20670">
<rect width="56" height="56" fill="white" transform="translate(0.5)"/>
</clipPath>
</defs>
</svg>
