<svg width="40" height="40" viewBox="0 0 40 40" fill="none" xmlns="http://www.w3.org/2000/svg">
<rect width="40" height="40" rx="20" fill="#F1F6FC"/>
<g clip-path="url(#clip0_306_9768)">
<path d="M21.9141 20C21.9141 21.0571 21.0571 21.9141 20 21.9141C18.9429 21.9141 18.0859 21.0571 18.0859 20C18.0859 18.9429 18.9429 18.0859 20 18.0859C21.0571 18.0859 21.9141 18.9429 21.9141 20Z" fill="#006EFF"/>
<path d="M24.4769 16.6134C24.3849 16.3641 24.2381 16.1384 24.0474 15.9532C23.8622 15.7625 23.6366 15.6157 23.3871 15.5237C23.1848 15.4451 22.8809 15.3515 22.321 15.326C21.7154 15.2984 21.5338 15.2925 20.0006 15.2925C18.4673 15.2925 18.2857 15.2983 17.6802 15.3259C17.1204 15.3515 16.8163 15.4451 16.6141 15.5237C16.3646 15.6157 16.1389 15.7625 15.9538 15.9532C15.7631 16.1384 15.6163 16.364 15.5241 16.6134C15.4456 16.8158 15.352 17.1199 15.3265 17.6797C15.2989 18.2852 15.293 18.4668 15.293 20.0001C15.293 21.5333 15.2989 21.7149 15.3265 22.3205C15.352 22.8804 15.4456 23.1843 15.5241 23.3867C15.6163 23.6361 15.7629 23.8617 15.9537 24.0469C16.1389 24.2376 16.3644 24.3844 16.6139 24.4764C16.8163 24.5552 17.1204 24.6487 17.6802 24.6742C18.2857 24.7018 18.4671 24.7076 20.0005 24.7076C21.534 24.7076 21.7155 24.7018 22.3209 24.6742C22.8807 24.6487 23.1848 24.5552 23.3871 24.4764C23.8879 24.2833 24.2838 23.8875 24.4769 23.3867C24.5555 23.1843 24.649 22.8804 24.6747 22.3205C24.7023 21.7149 24.7081 21.5333 24.7081 20.0001C24.7081 18.4668 24.7023 18.2852 24.6747 17.6797C24.6492 17.1199 24.5557 16.8158 24.4769 16.6134ZM20.0006 22.9486C18.372 22.9486 17.0518 21.6285 17.0518 20C17.0518 18.3714 18.372 17.0514 20.0006 17.0514C21.629 17.0514 22.9492 18.3714 22.9492 20C22.9492 21.6285 21.629 22.9486 20.0006 22.9486ZM23.0658 17.6239C22.6852 17.6239 22.3767 17.3153 22.3767 16.9348C22.3767 16.5542 22.6852 16.2457 23.0658 16.2457C23.4464 16.2457 23.7549 16.5542 23.7549 16.9348C23.7547 17.3153 23.4464 17.6239 23.0658 17.6239Z" fill="#006EFF"/>
<path d="M20 10C14.478 10 10 14.478 10 20C10 25.522 14.478 30 20 30C25.522 30 30 25.522 30 20C30 14.478 25.522 10 20 10ZM25.7076 22.3674C25.6798 22.9787 25.5826 23.396 25.4407 23.7613C25.1424 24.5326 24.5326 25.1424 23.7613 25.4407C23.3961 25.5826 22.9787 25.6796 22.3676 25.7076C21.7552 25.7355 21.5596 25.7422 20.0002 25.7422C18.4406 25.7422 18.2451 25.7355 17.6326 25.7076C17.0215 25.6796 16.604 25.5826 16.2389 25.4407C15.8556 25.2965 15.5086 25.0705 15.2217 24.7783C14.9297 24.4916 14.7037 24.1444 14.5595 23.7613C14.4176 23.3961 14.3204 22.9787 14.2926 22.3676C14.2644 21.7551 14.2578 21.5594 14.2578 20C14.2578 18.4406 14.2644 18.2449 14.2924 17.6326C14.3202 17.0213 14.4173 16.604 14.5592 16.2387C14.7034 15.8556 14.9295 15.5084 15.2217 15.2217C15.5084 14.9295 15.8556 14.7035 16.2387 14.5593C16.604 14.4174 17.0213 14.3204 17.6326 14.2924C18.2449 14.2645 18.4406 14.2578 20 14.2578C21.5594 14.2578 21.7551 14.2645 22.3674 14.2926C22.9787 14.3204 23.396 14.4174 23.7613 14.5592C24.1444 14.7034 24.4916 14.9295 24.7784 15.2217C25.0705 15.5086 25.2966 15.8556 25.4407 16.2387C25.5827 16.604 25.6798 17.0213 25.7077 17.6326C25.7356 18.2449 25.7422 18.4406 25.7422 20C25.7422 21.5594 25.7356 21.7551 25.7076 22.3674Z" fill="#006EFF"/>
</g>
<defs>
<clipPath id="clip0_306_9768">
<rect width="20" height="20" fill="white" transform="translate(10 10)"/>
</clipPath>
</defs>
</svg>
