<svg width="24" height="25" viewBox="0 0 24 25" fill="none" xmlns="http://www.w3.org/2000/svg">
<path d="M7.80098 2.50098H16.201C19.401 2.50098 22.001 5.10098 22.001 8.30098V16.701C22.001 18.2392 21.3899 19.7145 20.3022 20.8022C19.2145 21.8899 17.7392 22.501 16.201 22.501H7.80098C4.60098 22.501 2.00098 19.901 2.00098 16.701V8.30098C2.00098 6.76272 2.61205 5.28747 3.69976 4.19976C4.78747 3.11205 6.26272 2.50098 7.80098 2.50098ZM7.60098 4.50098C6.6462 4.50098 5.73052 4.88026 5.05539 5.55539C4.38026 6.23052 4.00098 7.1462 4.00098 8.10098V16.901C4.00098 18.891 5.61098 20.501 7.60098 20.501H16.401C17.3558 20.501 18.2714 20.1217 18.9466 19.4466C19.6217 18.7714 20.001 17.8558 20.001 16.901V8.10098C20.001 6.11098 18.391 4.50098 16.401 4.50098H7.60098ZM17.251 6.00098C17.5825 6.00098 17.9004 6.13267 18.1349 6.36709C18.3693 6.60151 18.501 6.91946 18.501 7.25098C18.501 7.5825 18.3693 7.90044 18.1349 8.13486C17.9004 8.36928 17.5825 8.50098 17.251 8.50098C16.9195 8.50098 16.6015 8.36928 16.3671 8.13486C16.1327 7.90044 16.001 7.5825 16.001 7.25098C16.001 6.91946 16.1327 6.60151 16.3671 6.36709C16.6015 6.13267 16.9195 6.00098 17.251 6.00098ZM12.001 7.50098C13.3271 7.50098 14.5988 8.02776 15.5365 8.96544C16.4742 9.90312 17.001 11.1749 17.001 12.501C17.001 13.8271 16.4742 15.0988 15.5365 16.0365C14.5988 16.9742 13.3271 17.501 12.001 17.501C10.6749 17.501 9.40312 16.9742 8.46544 16.0365C7.52776 15.0988 7.00098 13.8271 7.00098 12.501C7.00098 11.1749 7.52776 9.90312 8.46544 8.96544C9.40312 8.02776 10.6749 7.50098 12.001 7.50098ZM12.001 9.50098C11.2053 9.50098 10.4423 9.81705 9.87965 10.3797C9.31705 10.9423 9.00098 11.7053 9.00098 12.501C9.00098 13.2966 9.31705 14.0597 9.87965 14.6223C10.4423 15.1849 11.2053 15.501 12.001 15.501C12.7966 15.501 13.5597 15.1849 14.1223 14.6223C14.6849 14.0597 15.001 13.2966 15.001 12.501C15.001 11.7053 14.6849 10.9423 14.1223 10.3797C13.5597 9.81705 12.7966 9.50098 12.001 9.50098Z" fill="white"/>
</svg>
