<svg width="24" height="25" viewBox="0 0 24 25" fill="none" xmlns="http://www.w3.org/2000/svg">
<path d="M20.4696 2.50112H3.52957C3.33915 2.49847 3.15007 2.53336 2.97314 2.6038C2.7962 2.67424 2.63487 2.77884 2.49837 2.91163C2.36186 3.04442 2.25285 3.2028 2.17756 3.37773C2.10227 3.55265 2.06218 3.74069 2.05957 3.93112V21.0711C2.06218 21.2615 2.10227 21.4496 2.17756 21.6245C2.25285 21.7994 2.36186 21.9578 2.49837 22.0906C2.63487 22.2234 2.7962 22.328 2.97314 22.3984C3.15007 22.4689 3.33915 22.5038 3.52957 22.5011H20.4696C20.66 22.5038 20.8491 22.4689 21.026 22.3984C21.2029 22.328 21.3643 22.2234 21.5008 22.0906C21.6373 21.9578 21.7463 21.7994 21.8216 21.6245C21.8969 21.4496 21.937 21.2615 21.9396 21.0711V3.93112C21.937 3.74069 21.8969 3.55265 21.8216 3.37773C21.7463 3.2028 21.6373 3.04442 21.5008 2.91163C21.3643 2.77884 21.2029 2.67424 21.026 2.6038C20.8491 2.53336 20.66 2.49847 20.4696 2.50112ZM8.08957 19.2411H5.08957V10.2411H8.08957V19.2411ZM6.58957 8.98112C6.17583 8.98112 5.77904 8.81676 5.48648 8.5242C5.19393 8.23165 5.02957 7.83486 5.02957 7.42112C5.02957 7.00738 5.19393 6.61059 5.48648 6.31803C5.77904 6.02547 6.17583 5.86112 6.58957 5.86112C6.80927 5.8362 7.03175 5.85797 7.24245 5.925C7.45314 5.99203 7.64731 6.10281 7.81223 6.25008C7.97715 6.39735 8.1091 6.5778 8.19944 6.7796C8.28979 6.9814 8.33649 7.20001 8.33649 7.42112C8.33649 7.64222 8.28979 7.86083 8.19944 8.06264C8.1091 8.26444 7.97715 8.44488 7.81223 8.59216C7.64731 8.73943 7.45314 8.85021 7.24245 8.91723C7.03175 8.98426 6.80927 9.00603 6.58957 8.98112ZM18.9096 19.2411H15.9096V14.4111C15.9096 13.2011 15.4796 12.4111 14.3896 12.4111C14.0522 12.4136 13.7238 12.5194 13.4484 12.7143C13.1731 12.9092 12.9641 13.1838 12.8496 13.5011C12.7713 13.7362 12.7374 13.9837 12.7496 14.2311V19.2311H9.74957V10.2311H12.7496V11.5011C13.0221 11.0282 13.4185 10.6386 13.896 10.3743C14.3735 10.11 14.9141 9.98097 15.4596 10.0011C17.4596 10.0011 18.9096 11.2911 18.9096 14.0611V19.2411Z" fill="white"/>
</svg>
