<svg width="40" height="40" viewBox="0 0 40 40" fill="none" xmlns="http://www.w3.org/2000/svg">
<rect width="40" height="40" rx="20" fill="#F1F6FC"/>
<path d="M28.0002 28.0001V22.1401C28.0002 19.2601 27.3802 17.0601 24.0202 17.0601C22.4002 17.0601 21.3202 17.9401 20.8802 18.7801H20.8402V17.3201H17.6602V28.0001H20.9802V22.7001C20.9802 21.3001 21.2402 19.9601 22.9602 19.9601C24.6602 19.9601 24.6802 21.5401 24.6802 22.7801V27.9801H28.0002V28.0001Z" fill="#006EFF"/>
<path d="M12.2598 17.3198H15.5798V27.9998H12.2598V17.3198Z" fill="#006EFF"/>
<path d="M13.92 12C12.86 12 12 12.86 12 13.92C12 14.98 12.86 15.86 13.92 15.86C14.98 15.86 15.84 14.98 15.84 13.92C15.84 12.86 14.98 12 13.92 12Z" fill="#006EFF"/>
</svg>
