<svg width="57" height="56" viewBox="0 0 57 56" fill="none" xmlns="http://www.w3.org/2000/svg">
<g clip-path="url(#clip0_1_20686)">
<path d="M28.5 55.9995C43.964 55.9995 56.5 43.4635 56.5 27.9995C56.5 12.5355 43.964 -0.000488281 28.5 -0.000488281C13.036 -0.000488281 0.5 12.5355 0.5 27.9995C0.5 43.4635 13.036 55.9995 28.5 55.9995Z" fill="#007AB9"/>
<path d="M45.2296 30.2526V41.7964H38.5368V31.0262C38.5368 28.3219 37.5705 26.4752 35.1473 26.4752C33.298 26.4752 32.1994 27.7185 31.7143 28.9224C31.5381 29.3526 31.4927 29.9501 31.4927 30.5535V41.7959H24.7994C24.7994 41.7959 24.8892 23.5548 24.7994 21.6666H31.4932V24.5191C31.4797 24.5416 31.4607 24.5635 31.4487 24.585H31.4932V24.5191C32.3826 23.1505 33.9688 21.1939 37.5251 21.1939C41.9284 21.1939 45.2296 24.0709 45.2296 30.2526ZM17.7976 11.9636C15.5081 11.9636 14.0103 13.4664 14.0103 15.441C14.0103 17.3736 15.4647 18.9199 17.7098 18.9199H17.7532C20.0876 18.9199 21.5391 17.3736 21.5391 15.441C21.4947 13.4664 20.0876 11.9636 17.7976 11.9636ZM14.4081 41.7964H21.0988V21.6666H14.4081V41.7964Z" fill="#F1F2F2"/>
</g>
<defs>
<clipPath id="clip0_1_20686">
<rect width="56" height="56" fill="white" transform="translate(0.5)"/>
</clipPath>
</defs>
</svg>
