<svg width="57" height="56" viewBox="0 0 57 56" fill="none" xmlns="http://www.w3.org/2000/svg">
<g clip-path="url(#clip0_1_20679)">
<path d="M28.5 0C13.0366 0 0.5 12.5366 0.5 28C0.5 43.4634 13.0366 56 28.5 56C43.9634 56 56.5 43.4634 56.5 28C56.5 12.5366 43.9634 0 28.5 0Z" fill="black"/>
<path d="M31.5631 25.4661L43.5496 11.5328H40.7092L30.3013 23.6309L21.9886 11.5328H12.4009L24.9713 29.8272L12.4009 44.4384H15.2415L26.2324 31.6625L35.0112 44.4384H44.599L31.5624 25.4661H31.5631ZM16.2649 13.6712H20.6279L40.7105 42.3973H36.3475L16.2649 13.6712Z" fill="white"/>
</g>
<defs>
<clipPath id="clip0_1_20679">
<rect width="56" height="56" fill="white" transform="translate(0.5)"/>
</clipPath>
</defs>
</svg>
