<svg width="343" height="732" viewBox="0 0 343 732" fill="none" xmlns="http://www.w3.org/2000/svg">
<g filter="url(#filter0_b_1_8)">
<g clip-path="url(#clip0_1_8)">
<rect width="343" height="732" rx="24" fill="black"/>
<g filter="url(#filter1_f_1_8)">
<ellipse cx="-281.5" cy="264.5" rx="220.5" ry="498.5" transform="rotate(-90 -281.5 264.5)" fill="#42B0CE" fill-opacity="0.5"/>
</g>
<g opacity="0.5" filter="url(#filter2_d_1_8)">
<rect x="-2.65867" y="546" width="59.0946" height="59.0946" rx="29.5473" transform="rotate(3.24136 -2.65867 546)" fill="#6E6E6E" fill-opacity="0.5" shape-rendering="crispEdges"/>
<g clip-path="url(#clip1_1_8)">
<path d="M32.4031 589.915C39.4418 585.921 41.9096 576.977 37.9151 569.938C33.9207 562.899 24.9766 560.432 17.9379 564.426C10.8993 568.42 8.43147 577.365 12.4259 584.403C16.4204 591.442 25.3645 593.91 32.4031 589.915Z" fill="#FFDA24"/>
<path d="M37.9153 569.938C41.9096 576.976 39.4417 585.921 32.4032 589.915C25.3648 593.909 16.4204 591.442 12.426 584.403C12.1393 583.898 11.8858 583.383 11.6651 582.86C15.9992 588.775 24.175 590.636 30.7081 586.928C37.2412 583.221 39.8366 575.248 36.9811 568.494C37.3163 568.951 37.6285 569.433 37.9153 569.938Z" fill="#FFC024"/>
<path d="M19.3949 578.565L29.3303 572.927C30.092 572.495 31.0612 572.762 31.4934 573.524L31.5073 573.548C33.4878 577.038 32.2624 581.479 28.7726 583.46L28.7482 583.473C25.2449 585.462 20.7867 584.231 18.7986 580.728C18.3663 579.966 18.6338 578.997 19.3954 578.565L19.3949 578.565Z" fill="#473535"/>
<path d="M31.9078 579.903C31.3112 581.355 30.2432 582.625 28.7721 583.46L28.7477 583.474C27.2696 584.313 25.6235 584.579 24.0639 584.344C24.2686 582.642 25.2516 581.055 26.8576 580.143C28.4636 579.232 30.3385 579.201 31.9078 579.903Z" fill="#FF7E27"/>
<path d="M30.1251 572.721L30.3333 573.088C30.852 574.002 30.5317 575.164 29.6172 575.683L21.614 580.225C20.6995 580.744 19.5372 580.423 19.0185 579.509L18.8103 579.142C18.9467 578.909 19.1441 578.708 19.3955 578.566L29.3308 572.928C29.5817 572.785 29.8558 572.718 30.1256 572.721L30.1251 572.721Z" fill="white"/>
<path d="M26.2222 560.312L28.0682 562.867C28.1785 563.02 28.3572 563.109 28.5452 563.105L31.697 563.033C32.1714 563.022 32.4522 563.56 32.1719 563.943L30.3119 566.488C30.2007 566.64 30.1719 566.838 30.2337 567.015L31.2759 569.99C31.4327 570.438 31.0079 570.872 30.5572 570.723L27.5616 569.74C27.3826 569.681 27.1862 569.715 27.0362 569.829L24.5288 571.74C24.1517 572.028 23.6082 571.758 23.6094 571.283L23.6179 568.131C23.6183 567.942 23.5259 567.766 23.3711 567.659L20.7792 565.865C20.3889 565.594 20.4781 564.994 20.9296 564.849L23.9304 563.883C24.1096 563.826 24.2492 563.683 24.3033 563.503L25.2101 560.482C25.3464 560.028 25.9448 559.927 26.2222 560.312Z" fill="#FF7E27"/>
<path d="M10.1569 569.429L11.4045 572.324C11.479 572.497 11.4636 572.696 11.3638 572.855L9.68558 575.524C9.43319 575.926 9.75081 576.443 10.2232 576.398L13.3625 576.107C13.55 576.089 13.7342 576.166 13.8548 576.31L15.8747 578.73C16.1789 579.095 16.7687 578.952 16.8726 578.489L17.565 575.414C17.6061 575.23 17.7352 575.078 17.9107 575.008L20.8368 573.835C21.2772 573.659 21.324 573.054 20.916 572.812L18.2054 571.203C18.0434 571.106 17.9391 570.936 17.9267 570.749L17.7154 567.603C17.6836 567.13 17.1226 566.898 16.7666 567.212L14.3987 569.293C14.2573 569.417 14.0634 569.464 13.8805 569.418L10.8226 568.647C10.3625 568.531 9.96921 568.993 10.1569 569.429Z" fill="#FF7E27"/>
</g>
</g>
<g opacity="0.5" filter="url(#filter3_d_1_8)">
<rect x="-11" y="234.497" width="42.646" height="42.646" rx="21.323" transform="rotate(-30.4515 -11 234.497)" fill="#6E6E6E" fill-opacity="0.5" shape-rendering="crispEdges"/>
<g clip-path="url(#clip2_1_8)">
<path d="M26.3077 232.661L19.1142 236.55L12.2567 232.095C11.7766 231.783 11.1562 232.197 11.2595 232.76L12.7349 240.803L6.37915 245.948C5.93412 246.309 6.13579 247.026 6.70329 247.102L14.8087 248.185L17.7381 255.819C17.9432 256.354 18.6882 256.384 18.9357 255.867L22.4697 248.493L30.6359 248.066C31.2077 248.037 31.4665 247.337 31.0519 246.942L25.1307 241.302L27.2482 233.404C27.3965 232.851 26.8114 232.389 26.3077 232.661Z" fill="#FFDC64"/>
<path d="M12.2567 232.095C11.7766 231.783 11.1562 232.197 11.2595 232.76L12.7349 240.803L6.37915 245.948C5.93412 246.309 6.13579 247.026 6.70329 247.102L14.8087 248.185L17.7381 255.819C17.9432 256.354 18.6882 256.384 18.9357 255.867L19.7245 254.221C14.9454 246.662 14.909 239.119 15.6474 234.298L12.2567 232.095Z" fill="#FFC850"/>
</g>
</g>
<g filter="url(#filter4_f_1_8)">
<ellipse cx="725" cy="668.5" rx="220.5" ry="544" transform="rotate(-90 725 668.5)" fill="#996DFF" fill-opacity="0.4"/>
</g>
<g opacity="0.5" filter="url(#filter5_d_1_8)">
<g clip-path="url(#clip3_1_8)">
<rect x="47.5701" y="-11.299" width="47.1501" height="44.9049" rx="22.4524" transform="rotate(24.4556 47.5701 -11.299)" fill="#6E6E6E" fill-opacity="0.5" shape-rendering="crispEdges"/>
<g clip-path="url(#clip4_1_8)">
<path d="M69.8628 10.6062C73.3168 12.2001 74.6787 16.6433 72.9154 20.5653C69.6539 27.7367 54.8755 29.5864 54.8755 29.5864C54.8755 29.5864 46.6043 17.1279 49.8183 10.0609C51.6021 6.13872 55.8609 4.23827 59.3306 5.81627C61.4631 6.76349 62.8995 8.87415 63.1402 11.414C65.2161 9.93953 67.7444 9.63577 69.8628 10.6062Z" fill="url(#paint0_linear_1_8)"/>
</g>
</g>
</g>
<g opacity="0.5" filter="url(#filter6_d_1_8)">
<g clip-path="url(#clip5_1_8)">
<rect x="240.829" y="33.0265" width="39.8525" height="39.8525" rx="19.9262" transform="rotate(-33.7429 240.829 33.0265)" fill="#6E6E6E" fill-opacity="0.5" shape-rendering="crispEdges"/>
<g clip-path="url(#clip6_1_8)">
<path d="M266.103 37.8055L269.742 46.2664C269.84 46.4915 270.005 46.6811 270.214 46.8095C270.424 46.9378 270.667 46.9986 270.913 46.9837C271.158 46.9689 271.392 46.8789 271.585 46.7262C271.777 46.5735 271.917 46.3653 271.987 46.13L272.717 43.6795C272.823 43.3242 273.01 42.9984 273.264 42.7276C273.517 42.4568 273.83 42.2483 274.177 42.1186L276.573 41.2229C276.803 41.1378 277.002 40.9837 277.141 40.7815C277.281 40.5794 277.354 40.3391 277.352 40.0936C277.349 39.8482 277.271 39.6094 277.127 39.4101C276.984 39.2108 276.783 39.0606 276.551 38.9802L267.824 35.9657C267.572 35.8759 267.299 35.8617 267.039 35.9249C266.779 35.988 266.543 36.1258 266.36 36.3212C266.177 36.5166 266.056 36.7612 266.01 37.0249C265.964 37.2886 265.996 37.5599 266.103 37.8055Z" fill="#40FFE2"/>
<path opacity="0.4" d="M264.482 33.4703C264.299 33.5387 264.097 33.5316 263.919 33.4506C263.742 33.3697 263.603 33.2215 263.535 33.0387L262.848 31.2006C262.78 31.0177 262.787 30.8153 262.868 30.6377C262.949 30.4601 263.097 30.3219 263.28 30.2536C263.462 30.1852 263.665 30.1923 263.842 30.2733C264.02 30.3542 264.158 30.5024 264.226 30.6852L264.914 32.5233C264.982 32.7062 264.975 32.9086 264.894 33.0862C264.813 33.2638 264.665 33.402 264.482 33.4703Z" fill="#BCCFFF"/>
<path opacity="0.4" d="M262.064 36.111C261.946 36.1538 261.818 36.1652 261.695 36.1441L259.473 35.8056C259.376 35.7929 259.282 35.761 259.198 35.7117C259.113 35.6624 259.039 35.5967 258.98 35.5184C258.921 35.4402 258.879 35.351 258.855 35.256C258.831 35.161 258.826 35.0622 258.841 34.9654C258.855 34.8686 258.889 34.7756 258.94 34.6921C258.991 34.6085 259.059 34.536 259.138 34.4787C259.218 34.4215 259.308 34.3807 259.403 34.3587C259.499 34.3367 259.597 34.334 259.694 34.3508L261.916 34.6912C262.077 34.7157 262.226 34.793 262.338 34.911C262.451 35.029 262.521 35.181 262.538 35.3431C262.554 35.5052 262.517 35.6683 262.431 35.8068C262.345 35.9452 262.215 36.0513 262.063 36.1082L262.064 36.111Z" fill="#BCCFFF"/>
<path opacity="0.4" d="M261.028 41.0464C260.873 41.1047 260.702 41.1088 260.544 41.0581C260.386 41.0073 260.25 40.9047 260.158 40.7668C260.066 40.629 260.023 40.464 260.036 40.2987C260.049 40.1333 260.118 39.9773 260.231 39.8559L261.725 38.2497C261.791 38.1781 261.87 38.1202 261.958 38.0794C262.047 38.0386 262.142 38.0156 262.239 38.0118C262.336 38.0079 262.433 38.0234 262.524 38.0572C262.615 38.091 262.698 38.1424 262.769 38.2086C262.84 38.2748 262.898 38.3545 262.938 38.4429C262.978 38.5313 263 38.6268 263.003 38.7239C263.006 38.821 262.99 38.9177 262.956 39.0085C262.921 39.0993 262.869 39.1823 262.802 39.2529L261.308 40.8591C261.23 40.9426 261.135 41.0067 261.028 41.0464Z" fill="#BCCFFF"/>
<path opacity="0.4" d="M268.501 33.0151C268.346 33.0734 268.175 33.0775 268.017 33.0268C267.859 32.976 267.723 32.8734 267.631 32.7355C267.539 32.5977 267.496 32.4327 267.509 32.2674C267.522 32.102 267.591 31.946 267.704 31.8246L269.199 30.2184C269.332 30.0773 269.516 29.9947 269.71 29.9886C269.904 29.9825 270.093 30.0534 270.235 30.1857C270.377 30.3181 270.461 30.5012 270.468 30.6953C270.476 30.8893 270.407 31.0785 270.275 31.2216L268.781 32.8278C268.704 32.9113 268.608 32.9755 268.501 33.0151Z" fill="#BCCFFF"/>
</g>
</g>
</g>
<g opacity="0.5" filter="url(#filter7_d_1_8)">
<g clip-path="url(#clip7_1_8)">
<rect x="236" y="711.634" width="66.1638" height="66.1638" rx="33.0819" transform="rotate(-32.5861 236 711.634)" fill="#6E6E6E" fill-opacity="0.5" shape-rendering="crispEdges"/>
<g clip-path="url(#clip8_1_8)">
<path d="M268.135 729.606L278.312 743.68L281.742 738.519L275.49 725.948L268.135 729.606Z" fill="#FF9A27"/>
<path d="M265.874 730.731L272.127 743.301L278.312 743.68L270.682 728.339L265.874 730.731Z" fill="#FFB820"/>
<path d="M269.271 725.585L268.739 729.305L272.027 731.125L275.457 725.964L269.271 725.585Z" fill="#FFB820"/>
<path d="M265.841 730.746L272.027 731.125L269.271 725.585L265.841 730.746Z" fill="#FFD06A"/>
<path d="M286.671 709.225L301.299 732.246L304.729 727.085L294.026 705.567L286.671 709.225Z" fill="#2B1D73"/>
<path d="M284.41 710.35L295.113 731.867L301.299 732.246L289.218 707.958L284.41 710.35Z" fill="#3840A3"/>
<path d="M287.841 705.188L287.309 708.908L290.597 710.728L294.027 705.567L287.841 705.188Z" fill="#3A6FD8"/>
<path d="M284.412 710.35L290.597 710.729L287.842 705.188L284.412 710.35Z" fill="#3B88F5"/>
<path d="M272.423 709.402L289.806 737.963L293.236 732.802L279.778 705.744L272.423 709.402Z" fill="#2DB94D"/>
<path d="M270.161 710.527L283.619 737.584L289.805 737.963L274.969 708.135L270.161 710.527Z" fill="#62D15B"/>
<path d="M273.591 705.366L273.058 709.086L276.346 710.905L279.776 705.744L273.591 705.366Z" fill="#62D15B"/>
<path d="M270.161 710.527L276.347 710.906L273.591 705.366L270.161 710.527Z" fill="#94E368"/>
</g>
</g>
</g>
<g opacity="0.5" filter="url(#filter8_d_1_8)">
<rect x="336.619" y="381" width="46.9025" height="46.9025" rx="23.4512" transform="rotate(76.566 336.619 381)" fill="#6E6E6E" fill-opacity="0.5" shape-rendering="crispEdges"/>
<g clip-path="url(#clip9_1_8)">
<path d="M321.83 412.279L318.087 407.793C317.891 407.559 317.877 407.224 318.051 406.974C318.225 406.724 318.544 406.622 318.831 406.724C321.617 407.714 323.812 407.605 325.54 406.39C326.14 405.968 327.005 406.094 327.471 406.667C327.945 407.254 328.165 407.989 328.092 408.739C328.019 409.49 327.66 410.17 327.081 410.653C327.081 410.653 327.08 410.653 327.08 410.653L326.906 410.799C325.491 411.98 324.239 412.314 322.424 412.517C322.199 412.542 321.976 412.453 321.83 412.279Z" fill="#FCDDB8"/>
<path d="M325.831 418.266C326.727 417.518 326.848 416.181 326.1 415.285L319.124 406.927C319.046 406.835 318.945 406.764 318.831 406.724C317.995 406.427 317.215 406.073 316.588 405.788C316.369 405.689 316.163 405.595 315.972 405.512C315.738 405.41 315.466 405.449 315.269 405.613L308.631 411.153C308.435 411.317 308.348 411.578 308.407 411.827C309.108 414.797 310.435 416.645 312.131 418.676C312.393 418.99 312.665 419.31 312.944 419.638C313.253 420.001 313.572 420.376 313.903 420.772L315.272 422.412C316.02 423.308 317.357 423.428 318.253 422.68C318.554 422.429 318.768 422.111 318.89 421.765C319.566 421.994 320.341 421.876 320.927 421.387C321.229 421.135 321.442 420.817 321.565 420.472C322.24 420.7 323.015 420.582 323.602 420.093C324.023 419.741 324.273 419.259 324.342 418.754C324.885 418.788 325.412 418.616 325.831 418.266Z" fill="#FEE3C4"/>
<path d="M329.454 413.413L328.53 412.307C328.291 412.02 328.329 411.594 328.616 411.355C328.902 411.116 329.328 411.155 329.567 411.441L330.491 412.547C330.73 412.834 330.691 413.26 330.405 413.499C330.119 413.738 329.693 413.7 329.454 413.413Z" fill="#29CCB1"/>
<path d="M322.989 405.669L322.065 404.563C321.826 404.276 321.865 403.85 322.151 403.611C322.437 403.372 322.863 403.411 323.102 403.697L324.026 404.803C324.265 405.09 324.226 405.516 323.94 405.755C323.654 405.994 323.228 405.955 322.989 405.669Z" fill="#29CCB1"/>
<path d="M327.248 404.93C327.098 404.75 327.046 404.499 327.132 404.264L327.629 402.911C327.757 402.561 328.145 402.381 328.495 402.509C328.846 402.638 329.025 403.026 328.897 403.376L328.4 404.729C328.272 405.079 327.884 405.259 327.534 405.13C327.418 405.088 327.321 405.018 327.248 404.93Z" fill="#29CCB1"/>
<path d="M330.017 408.247C329.944 408.159 329.892 408.052 329.871 407.931C329.807 407.563 330.053 407.213 330.421 407.15L331.84 406.903C332.208 406.839 332.558 407.085 332.621 407.453C332.685 407.82 332.439 408.17 332.072 408.234L330.652 408.481C330.405 408.523 330.167 408.427 330.017 408.247Z" fill="#29CCB1"/>
<path d="M308.745 409.053L306.013 411.333L305.148 410.296L307.879 408.016C308.165 407.777 308.591 407.815 308.83 408.102C309.069 408.388 309.031 408.814 308.745 409.053Z" fill="#73C3FF"/>
<path d="M329.454 413.413L328.53 412.307C328.291 412.02 328.329 411.594 328.616 411.355C328.902 411.116 329.328 411.155 329.567 411.441L330.491 412.547C330.73 412.834 330.691 413.26 330.405 413.499C330.119 413.738 329.693 413.7 329.454 413.413Z" fill="#5869FF"/>
<path d="M322.989 405.669L322.065 404.563C321.826 404.276 321.865 403.85 322.151 403.611C322.437 403.372 322.863 403.411 323.102 403.697L324.026 404.803C324.265 405.09 324.226 405.516 323.94 405.755C323.654 405.994 323.228 405.955 322.989 405.669Z" fill="#5869FF"/>
<path d="M327.248 404.93C327.098 404.75 327.046 404.499 327.132 404.264L327.629 402.911C327.757 402.561 328.145 402.381 328.495 402.509C328.846 402.638 329.025 403.026 328.897 403.376L328.4 404.729C328.272 405.079 327.884 405.259 327.534 405.13C327.418 405.088 327.321 405.018 327.248 404.93Z" fill="#5869FF"/>
<path d="M330.017 408.247C329.944 408.159 329.892 408.052 329.871 407.931C329.807 407.563 330.053 407.213 330.421 407.15L331.84 406.903C332.208 406.839 332.558 407.085 332.621 407.453C332.685 407.82 332.439 408.17 332.072 408.234L330.652 408.481C330.405 408.523 330.167 408.427 330.017 408.247Z" fill="#5869FF"/>
<path d="M308.743 409.053L306.012 411.333L305.146 410.296L307.877 408.016C308.163 407.777 308.59 407.816 308.829 408.102C309.068 408.388 309.029 408.814 308.743 409.053Z" fill="#73C3FF"/>
<path d="M317.321 404.768L313.627 400.343C313.388 400.057 312.962 400.018 312.676 400.257L303.825 407.645C303.539 407.884 303.501 408.31 303.733 408.602L306.503 411.921C307.041 412.551 307.868 412.796 308.623 412.618C308.933 412.545 309.231 412.401 309.491 412.184L317.235 405.72C317.522 405.481 317.56 405.054 317.321 404.768Z" fill="#4479EC"/>
<path d="M308.779 409.024L306.013 411.333L305.148 410.296L307.913 407.987C308.2 407.748 308.626 407.787 308.865 408.073C309.104 408.359 309.065 408.785 308.779 409.024Z" fill="#73C3FF"/>
</g>
</g>
</g>
<rect x="3" y="3" width="337" height="726" rx="21" stroke="white" stroke-opacity="0.39" stroke-width="6"/>
</g>
<defs>
<filter id="filter0_b_1_8" x="-10.8" y="-10.8" width="364.6" height="753.6" filterUnits="userSpaceOnUse" color-interpolation-filters="sRGB">
<feFlood flood-opacity="0" result="BackgroundImageFix"/>
<feGaussianBlur in="BackgroundImageFix" stdDeviation="5.4"/>
<feComposite in2="SourceAlpha" operator="in" result="effect1_backgroundBlur_1_8"/>
<feBlend mode="normal" in="SourceGraphic" in2="effect1_backgroundBlur_1_8" result="shape"/>
</filter>
<filter id="filter1_f_1_8" x="-980" y="-156" width="1397" height="841" filterUnits="userSpaceOnUse" color-interpolation-filters="sRGB">
<feFlood flood-opacity="0" result="BackgroundImageFix"/>
<feBlend mode="normal" in="SourceGraphic" in2="BackgroundImageFix" result="shape"/>
<feGaussianBlur stdDeviation="100" result="effect1_foregroundBlur_1_8"/>
</filter>
<filter id="filter2_d_1_8" x="-30.0934" y="524.74" width="110.528" height="110.528" filterUnits="userSpaceOnUse" color-interpolation-filters="sRGB">
<feFlood flood-opacity="0" result="BackgroundImageFix"/>
<feColorMatrix in="SourceAlpha" type="matrix" values="0 0 0 0 0 0 0 0 0 0 0 0 0 0 0 0 0 0 127 0" result="hardAlpha"/>
<feOffset dy="2.83313"/>
<feGaussianBlur stdDeviation="12.0467"/>
<feComposite in2="hardAlpha" operator="out"/>
<feColorMatrix type="matrix" values="0 0 0 0 0 0 0 0 0 0 0 0 0 0 0 0 0 0 0.05 0"/>
<feBlend mode="normal" in2="BackgroundImageFix" result="effect1_dropShadow_1_8"/>
<feBlend mode="normal" in="SourceGraphic" in2="effect1_dropShadow_1_8" result="shape"/>
</filter>
<filter id="filter3_d_1_8" x="-31.9112" y="194.431" width="100.199" height="100.199" filterUnits="userSpaceOnUse" color-interpolation-filters="sRGB">
<feFlood flood-opacity="0" result="BackgroundImageFix"/>
<feColorMatrix in="SourceAlpha" type="matrix" values="0 0 0 0 0 0 0 0 0 0 0 0 0 0 0 0 0 0 127 0" result="hardAlpha"/>
<feOffset dy="2.45894"/>
<feGaussianBlur stdDeviation="10.4556"/>
<feComposite in2="hardAlpha" operator="out"/>
<feColorMatrix type="matrix" values="0 0 0 0 0 0 0 0 0 0 0 0 0 0 0 0 0 0 0.05 0"/>
<feBlend mode="normal" in2="BackgroundImageFix" result="effect1_dropShadow_1_8"/>
<feBlend mode="normal" in="SourceGraphic" in2="effect1_dropShadow_1_8" result="shape"/>
</filter>
<filter id="filter4_f_1_8" x="-19" y="248" width="1488" height="841" filterUnits="userSpaceOnUse" color-interpolation-filters="sRGB">
<feFlood flood-opacity="0" result="BackgroundImageFix"/>
<feBlend mode="normal" in="SourceGraphic" in2="BackgroundImageFix" result="shape"/>
<feGaussianBlur stdDeviation="100" result="effect1_foregroundBlur_1_8"/>
</filter>
<filter id="filter5_d_1_8" x="5.4798" y="-32.0359" width="108.51" height="107.396" filterUnits="userSpaceOnUse" color-interpolation-filters="sRGB">
<feFlood flood-opacity="0" result="BackgroundImageFix"/>
<feColorMatrix in="SourceAlpha" type="matrix" values="0 0 0 0 0 0 0 0 0 0 0 0 0 0 0 0 0 0 127 0" result="hardAlpha"/>
<feOffset dy="2.76338"/>
<feGaussianBlur stdDeviation="11.7501"/>
<feComposite in2="hardAlpha" operator="out"/>
<feColorMatrix type="matrix" values="0 0 0 0 0 0 0 0 0 0 0 0 0 0 0 0 0 0 0.1 0"/>
<feBlend mode="normal" in2="BackgroundImageFix" result="effect1_dropShadow_1_8"/>
<feBlend mode="normal" in="SourceGraphic" in2="effect1_dropShadow_1_8" result="shape"/>
</filter>
<filter id="filter6_d_1_8" x="225.872" y="-2.30838" width="85.1895" height="85.1895" filterUnits="userSpaceOnUse" color-interpolation-filters="sRGB">
<feFlood flood-opacity="0" result="BackgroundImageFix"/>
<feColorMatrix in="SourceAlpha" type="matrix" values="0 0 0 0 0 0 0 0 0 0 0 0 0 0 0 0 0 0 127 0" result="hardAlpha"/>
<feOffset dy="1.75878"/>
<feGaussianBlur stdDeviation="7.47847"/>
<feComposite in2="hardAlpha" operator="out"/>
<feColorMatrix type="matrix" values="0 0 0 0 0 0 0 0 0 0 0 0 0 0 0 0 0 0 0.05 0"/>
<feBlend mode="normal" in2="BackgroundImageFix" result="effect1_dropShadow_1_8"/>
<feBlend mode="normal" in="SourceGraphic" in2="effect1_dropShadow_1_8" result="shape"/>
</filter>
<filter id="filter7_d_1_8" x="202.254" y="646.222" width="158.874" height="158.874" filterUnits="userSpaceOnUse" color-interpolation-filters="sRGB">
<feFlood flood-opacity="0" result="BackgroundImageFix"/>
<feColorMatrix in="SourceAlpha" type="matrix" values="0 0 0 0 0 0 0 0 0 0 0 0 0 0 0 0 0 0 127 0" result="hardAlpha"/>
<feOffset dy="3.96816"/>
<feGaussianBlur stdDeviation="16.8729"/>
<feComposite in2="hardAlpha" operator="out"/>
<feColorMatrix type="matrix" values="0 0 0 0 0 0 0 0 0 0 0 0 0 0 0 0 0 0 0.05 0"/>
<feBlend mode="normal" in2="BackgroundImageFix" result="effect1_dropShadow_1_8"/>
<feBlend mode="normal" in="SourceGraphic" in2="effect1_dropShadow_1_8" result="shape"/>
</filter>
<filter id="filter8_d_1_8" x="270.185" y="362.633" width="98.1454" height="98.1454" filterUnits="userSpaceOnUse" color-interpolation-filters="sRGB">
<feFlood flood-opacity="0" result="BackgroundImageFix"/>
<feColorMatrix in="SourceAlpha" type="matrix" values="0 0 0 0 0 0 0 0 0 0 0 0 0 0 0 0 0 0 127 0" result="hardAlpha"/>
<feOffset dy="2.44761"/>
<feGaussianBlur stdDeviation="10.4074"/>
<feComposite in2="hardAlpha" operator="out"/>
<feColorMatrix type="matrix" values="0 0 0 0 0 0 0 0 0 0 0 0 0 0 0 0 0 0 0.05 0"/>
<feBlend mode="normal" in2="BackgroundImageFix" result="effect1_dropShadow_1_8"/>
<feBlend mode="normal" in="SourceGraphic" in2="effect1_dropShadow_1_8" result="shape"/>
</filter>
<linearGradient id="paint0_linear_1_8" x1="64.5968" y1="8.21103" x2="54.8755" y2="29.5864" gradientUnits="userSpaceOnUse">
<stop stop-color="#D7443E"/>
<stop offset="1" stop-color="#FF9A96"/>
</linearGradient>
<clipPath id="clip0_1_8">
<rect width="343" height="732" rx="24" fill="white"/>
</clipPath>
<clipPath id="clip1_1_8">
<rect width="29.3077" height="29.3077" fill="white" transform="translate(5.19347 571.659) rotate(-29.575)"/>
</clipPath>
<clipPath id="clip2_1_8">
<rect width="25.1382" height="25.1382" fill="white" transform="translate(0.757999 238.587) rotate(-33.6929)"/>
</clipPath>
<clipPath id="clip3_1_8">
<rect x="47.5701" y="-11.299" width="47.1501" height="44.9049" rx="22.4524" transform="rotate(24.4556 47.5701 -11.299)" fill="white"/>
</clipPath>
<clipPath id="clip4_1_8">
<rect width="25.3735" height="28.6831" fill="white" transform="translate(54.1238 0.591797) rotate(24.4556)"/>
</clipPath>
<clipPath id="clip5_1_8">
<rect x="240.829" y="33.0265" width="39.8525" height="39.8525" rx="19.9262" transform="rotate(-33.7429 240.829 33.0265)" fill="white"/>
</clipPath>
<clipPath id="clip6_1_8">
<rect width="23.5485" height="23.5485" fill="white" transform="translate(253.315 31.6216) rotate(-20.497)"/>
</clipPath>
<clipPath id="clip7_1_8">
<rect x="236" y="711.634" width="66.1638" height="66.1638" rx="33.0819" transform="rotate(-32.5861 236 711.634)" fill="white"/>
</clipPath>
<clipPath id="clip8_1_8">
<rect width="36.4494" height="36.4494" fill="white" transform="translate(257.257 713.49) rotate(-26.4456)"/>
</clipPath>
<clipPath id="clip9_1_8">
<rect width="23.0141" height="23.0141" fill="white" transform="translate(320.718 393.05) rotate(50.1479)"/>
</clipPath>
</defs>
</svg>
