<svg width="25" height="24" viewBox="0 0 25 24" fill="none" xmlns="http://www.w3.org/2000/svg">
<path d="M19.8807 11.0307C19.811 11.1005 19.7283 11.1558 19.6372 11.1935C19.5462 11.2313 19.4486 11.2507 19.35 11.2507C19.2515 11.2507 19.1539 11.2313 19.0628 11.1935C18.9718 11.1558 18.8891 11.1005 18.8194 11.0307L13.35 5.56041V20.2501C13.35 20.449 13.271 20.6398 13.1304 20.7804C12.9897 20.9211 12.7989 21.0001 12.6 21.0001C12.4011 21.0001 12.2103 20.9211 12.0697 20.7804C11.929 20.6398 11.85 20.449 11.85 20.2501V5.56041L6.38065 11.0307C6.23992 11.1715 6.04905 11.2505 5.85003 11.2505C5.651 11.2505 5.46013 11.1715 5.3194 11.0307C5.17867 10.89 5.09961 10.6991 5.09961 10.5001C5.09961 10.3011 5.17867 10.1102 5.3194 9.96948L12.0694 3.21948C12.1391 3.14974 12.2218 3.09443 12.3128 3.05668C12.4039 3.01894 12.5015 2.99951 12.6 2.99951C12.6986 2.99951 12.7962 3.01894 12.8872 3.05668C12.9783 3.09443 13.061 3.14974 13.1307 3.21948L19.8807 9.96948C19.9504 10.0391 20.0057 10.1218 20.0434 10.2129C20.0812 10.3039 20.1006 10.4015 20.1006 10.5001C20.1006 10.5987 20.0812 10.6963 20.0434 10.7873C20.0057 10.8784 19.9504 10.9611 19.8807 11.0307Z" fill="#006EFF"/>
</svg>
