<svg width="52" height="53" viewBox="0 0 52 53" fill="none" xmlns="http://www.w3.org/2000/svg">
<rect y="0.5" width="52" height="52" rx="26" fill="#004BDE"/>
<path d="M40 25.1338C40 27.965 37.8355 30.3001 35.0743 30.5708C34.9737 27.8003 32.6883 25.5773 29.8938 25.5773H28.4609V25.5363C29.2473 24.8423 29.7188 23.8344 29.7188 22.7489C29.7188 20.6981 28.0508 19.0301 26 19.0301C23.9492 19.0301 22.2812 20.6981 22.2812 22.7489C22.2812 23.8344 22.7527 24.8423 23.5391 25.5363V25.5773H22.1062C19.3117 25.5773 17.0263 27.7998 16.9257 30.5703C14.164 30.2968 12 27.9611 12 25.1283C12 23.7502 12.5146 22.4333 13.4487 21.421C14.1695 20.6401 15.0904 20.0932 16.1021 19.8329C15.7313 16.6353 18.1939 13.7271 21.4276 13.7511C23.3859 13.7511 25.0309 14.8022 26 16.4483C26.9346 15.9146 28.2504 15.6275 29.3359 15.6275C31.9675 15.6275 34.2879 17.2779 35.1744 19.7077C37.8852 20.0254 40 22.342 40 25.1338Z" fill="white"/>
<path d="M22.1061 35.9461C20.8275 35.9461 19.6555 35.4812 18.751 34.7107C19.4209 37.3171 21.7911 39.2492 24.6036 39.2492H27.396C30.2086 39.2492 32.5787 37.3171 33.2486 34.7107C32.3441 35.4812 31.1721 35.9461 29.8936 35.9461H22.1061Z" fill="white"/>
<path d="M22.1063 34.3053H29.8938C31.8477 34.3053 33.4375 32.7161 33.4375 30.7616C33.4375 28.8076 31.8477 27.2178 29.8938 27.2178H26.8203V24.6578C27.5593 24.3389 28.0781 23.6033 28.0781 22.7488C28.0781 21.6025 27.1457 20.6707 26 20.6707C24.8543 20.6707 23.9219 21.6025 23.9219 22.7488C23.9219 23.6033 24.4407 24.3389 25.1797 24.6578V27.2178H22.1063C20.1523 27.2178 18.5625 28.8076 18.5625 30.7616C18.5625 32.7161 20.1523 34.3053 22.1063 34.3053ZM29.3359 29.9413C29.7887 29.9413 30.1562 30.3088 30.1562 30.7616C30.1562 31.2144 29.7887 31.5819 29.3359 31.5819C28.8831 31.5819 28.5156 31.2144 28.5156 30.7616C28.5156 30.3088 28.8831 29.9413 29.3359 29.9413ZM22.6641 29.9413C23.1169 29.9413 23.4844 30.3088 23.4844 30.7616C23.4844 31.2144 23.1169 31.5819 22.6641 31.5819C22.2113 31.5819 21.8438 31.2144 21.8438 30.7616C21.8438 30.3088 22.2113 29.9413 22.6641 29.9413Z" fill="white"/>
</svg>
