<svg width="48" height="48" viewBox="0 0 48 48" fill="none" xmlns="http://www.w3.org/2000/svg">
<rect x="0.5" y="0.5" width="47" height="47" rx="11.5" fill="white"/>
<rect x="0.5" y="0.5" width="47" height="47" rx="11.5" stroke="#292929"/>
<path d="M29.625 24.625C29.625 24.7908 29.5592 24.9497 29.4419 25.0669C29.3247 25.1842 29.1658 25.25 29 25.25H19C18.8342 25.25 18.6753 25.1842 18.5581 25.0669C18.4408 24.9497 18.375 24.7908 18.375 24.625C18.375 24.4592 18.4408 24.3003 18.5581 24.1831C18.6753 24.0658 18.8342 24 19 24H29C29.1658 24 29.3247 24.0658 29.4419 24.1831C29.5592 24.3003 29.625 24.4592 29.625 24.625ZM32.125 20.25H15.875C15.7092 20.25 15.5503 20.3158 15.4331 20.4331C15.3158 20.5503 15.25 20.7092 15.25 20.875C15.25 21.0408 15.3158 21.1997 15.4331 21.3169C15.5503 21.4342 15.7092 21.5 15.875 21.5H32.125C32.2908 21.5 32.4497 21.4342 32.5669 21.3169C32.6842 21.1997 32.75 21.0408 32.75 20.875C32.75 20.7092 32.6842 20.5503 32.5669 20.4331C32.4497 20.3158 32.2908 20.25 32.125 20.25ZM25.875 27.75H22.125C21.9592 27.75 21.8003 27.8158 21.6831 27.9331C21.5658 28.0503 21.5 28.2092 21.5 28.375C21.5 28.5408 21.5658 28.6997 21.6831 28.8169C21.8003 28.9342 21.9592 29 22.125 29H25.875C26.0408 29 26.1997 28.9342 26.3169 28.8169C26.4342 28.6997 26.5 28.5408 26.5 28.375C26.5 28.2092 26.4342 28.0503 26.3169 27.9331C26.1997 27.8158 26.0408 27.75 25.875 27.75Z" fill="#292929"/>
</svg>
