<svg width="52" height="53" viewBox="0 0 52 53" fill="none" xmlns="http://www.w3.org/2000/svg">
<rect y="0.5" width="52" height="52" rx="26" fill="#004BDE"/>
<g clip-path="url(#clip0_462_30863)">
<path d="M39.1793 38.8594H38.3043V22.6721C38.3043 22.2191 37.9371 21.8518 37.484 21.8518H34.2028C33.7498 21.8518 33.3825 22.2191 33.3825 22.6721V38.8594H31.7419V28.1408C31.7419 27.6878 31.3746 27.3205 30.9216 27.3205H27.6404C27.1874 27.3205 26.8201 27.6878 26.8201 28.1408V38.8594H25.1795V31.1486C25.1795 30.6955 24.8122 30.3283 24.3592 30.3283H21.078C20.625 30.3283 20.2577 30.6955 20.2577 31.1486V38.8594H18.6171V33.1173C18.6171 32.6643 18.2498 32.297 17.7968 32.297H14.5156C14.0626 32.297 13.6953 32.6643 13.6953 33.1173V38.8594H12.8203C12.3673 38.8594 12 39.2267 12 39.6797C12 40.1327 12.3673 40.5 12.8203 40.5H39.1793C39.6323 40.5 39.9996 40.1327 39.9996 39.6797C39.9996 39.2267 39.6323 38.8594 39.1793 38.8594Z" fill="white"/>
<path d="M12.8203 30.1262C17.94 30.1262 23.4919 28.2875 28.4534 24.9488C32.3392 22.334 35.5783 18.9935 37.5903 15.573L38.387 18.5462C38.4852 18.9127 38.9594 19.2293 39.3917 19.1262C39.8323 19.0211 40.0889 18.5592 39.9717 18.1216L38.6284 13.1084C38.5111 12.6709 38.0615 12.4111 37.6238 12.5284L32.6106 13.8717C32.173 13.9889 31.9134 14.4387 32.0306 14.8763C32.1479 15.3139 32.5975 15.5737 33.0353 15.4563L36.2648 14.591C34.3877 17.8528 31.2854 21.0656 27.5374 23.5877C22.8438 26.7462 17.6171 28.4856 12.8203 28.4856C12.3673 28.4856 12 28.8528 12 29.3059C12 29.7589 12.3673 30.1262 12.8203 30.1262Z" fill="white"/>
</g>
<defs>
<clipPath id="clip0_462_30863">
<rect width="28" height="28" fill="white" transform="translate(12 12.5)"/>
</clipPath>
</defs>
</svg>
