<svg width="61" height="60" viewBox="0 0 61 60" fill="none" xmlns="http://www.w3.org/2000/svg">
<path d="M60.5 30C60.5 44.9742 49.5289 57.3855 35.1875 59.6355V38.6719H42.1777L43.5078 30H35.1875V24.3727C35.1875 21.9996 36.35 19.6875 40.0766 19.6875H43.8594V12.3047C43.8594 12.3047 40.4258 11.7188 37.1434 11.7188C30.2914 11.7188 25.8125 15.8719 25.8125 23.3906V30H18.1953V38.6719H25.8125V59.6355C11.4711 57.3855 0.5 44.9742 0.5 30C0.5 13.432 13.932 0 30.5 0C47.068 0 60.5 13.432 60.5 30Z" fill="#1877F2"/>
<path d="M42.1777 38.6719L43.5078 30H35.1875V24.3725C35.1875 22.0001 36.3498 19.6875 40.0764 19.6875H43.8594V12.3047C43.8594 12.3047 40.4263 11.7188 37.1439 11.7188C30.2913 11.7188 25.8125 15.8719 25.8125 23.3906V30H18.1953V38.6719H25.8125V59.6354C27.3399 59.8751 28.9053 60 30.5 60C32.0947 60 33.6601 59.8751 35.1875 59.6354V38.6719H42.1777Z" fill="white"/>
</svg>
