<svg width="32" height="32" viewBox="0 0 32 32" fill="none" xmlns="http://www.w3.org/2000/svg">
<rect width="32" height="32" rx="16" fill="#292929"/>
<path d="M20.854 20.146C20.9005 20.1925 20.9373 20.2476 20.9625 20.3083C20.9876 20.369 21.0006 20.4341 21.0006 20.4998C21.0006 20.5655 20.9876 20.6305 20.9625 20.6912C20.9373 20.7519 20.9005 20.8071 20.854 20.8535C20.8076 20.9 20.7524 20.9368 20.6917 20.962C20.631 20.9871 20.566 21.0001 20.5003 21.0001C20.4346 21.0001 20.3695 20.9871 20.3088 20.962C20.2481 20.9368 20.193 20.9 20.1465 20.8535L16.0003 16.7067L11.854 20.8535C11.7602 20.9474 11.633 21.0001 11.5003 21.0001C11.3676 21.0001 11.2403 20.9474 11.1465 20.8535C11.0527 20.7597 11 20.6325 11 20.4998C11 20.3671 11.0527 20.2399 11.1465 20.146L15.2934 15.9998L11.1465 11.8535C11.0527 11.7597 11 11.6325 11 11.4998C11 11.3671 11.0527 11.2399 11.1465 11.146C11.2403 11.0522 11.3676 10.9995 11.5003 10.9995C11.633 10.9995 11.7602 11.0522 11.854 11.146L16.0003 15.2929L20.1465 11.146C20.2403 11.0522 20.3676 10.9995 20.5003 10.9995C20.633 10.9995 20.7602 11.0522 20.854 11.146C20.9478 11.2399 21.0006 11.3671 21.0006 11.4998C21.0006 11.6325 20.9478 11.7597 20.854 11.8535L16.7072 15.9998L20.854 20.146Z" fill="white"/>
</svg>
