<svg width="16" height="16" viewBox="0 0 16 16" fill="none" xmlns="http://www.w3.org/2000/svg">
<path d="M12.8541 12.6463C12.9006 12.6927 12.9374 12.7479 12.9626 12.8086C12.9877 12.8693 13.0007 12.9343 13.0007 13C13.0007 13.0657 12.9877 13.1308 12.9626 13.1915C12.9374 13.2522 12.9006 13.3073 12.8541 13.3538C12.8077 13.4002 12.7525 13.4371 12.6918 13.4622C12.6311 13.4874 12.5661 13.5003 12.5004 13.5003C12.4347 13.5003 12.3696 13.4874 12.3089 13.4622C12.2482 13.4371 12.1931 13.4002 12.1466 13.3538L7.14664 8.35378C7.10015 8.30735 7.06328 8.2522 7.03811 8.1915C7.01295 8.13081 7 8.06574 7 8.00003C7 7.93433 7.01295 7.86926 7.03811 7.80856C7.06328 7.74786 7.10015 7.69272 7.14664 7.64628L12.1466 2.64628C12.2405 2.55246 12.3677 2.49976 12.5004 2.49976C12.6331 2.49976 12.7603 2.55246 12.8541 2.64628C12.948 2.7401 13.0007 2.86735 13.0007 3.00003C13.0007 3.13272 12.948 3.25996 12.8541 3.35378L8.20727 8.00003L12.8541 12.6463ZM3.20727 8.00003L7.85414 3.35378C7.94796 3.25996 8.00067 3.13272 8.00067 3.00003C8.00067 2.86735 7.94796 2.7401 7.85414 2.64628C7.76032 2.55246 7.63308 2.49976 7.50039 2.49976C7.36771 2.49976 7.24046 2.55246 7.14664 2.64628L2.14664 7.64628C2.10016 7.69272 2.06328 7.74786 2.03811 7.80856C2.01295 7.86926 2 7.93433 2 8.00003C2 8.06574 2.01295 8.13081 2.03811 8.1915C2.06328 8.2522 2.10016 8.30735 2.14664 8.35378L7.14664 13.3538C7.1931 13.4002 7.24825 13.4371 7.30895 13.4622C7.36964 13.4874 7.4347 13.5003 7.50039 13.5003C7.56609 13.5003 7.63115 13.4874 7.69184 13.4622C7.75254 13.4371 7.80769 13.4002 7.85414 13.3538C7.9006 13.3073 7.93745 13.2522 7.96259 13.1915C7.98773 13.1308 8.00067 13.0657 8.00067 13C8.00067 12.9343 7.98773 12.8693 7.96259 12.8086C7.93745 12.7479 7.9006 12.6927 7.85414 12.6463L3.20727 8.00003Z" fill="#BDBDBD"/>
</svg>
