<svg width="61" height="60" viewBox="0 0 61 60" fill="none" xmlns="http://www.w3.org/2000/svg">
<g clip-path="url(#clip0_20057_6718)">
<path d="M4.24928 4.08274C-0.465723 8.98024 0.499277 14.1827 0.499277 29.9877C0.499277 43.1127 -1.79072 56.2702 10.1943 59.3677C13.9368 60.3302 47.0968 60.3302 50.8343 59.3627C55.8243 58.0752 59.8843 54.0277 60.4393 46.9702C60.5168 45.9852 60.5168 14.0077 60.4368 13.0027C59.8468 5.48524 55.2193 1.15274 49.1218 0.275238C47.7243 0.0727381 47.4443 0.0127381 40.2743 0.000238061C14.8418 0.0127381 9.26678 -1.11976 4.24928 4.08274Z" fill="url(#paint0_linear_20057_6718)"/>
<path d="M30.4945 7.84755C21.417 7.84755 12.797 7.04005 9.50454 15.4901C8.14454 18.9801 8.34204 23.5126 8.34204 30.0026C8.34204 35.6976 8.15954 41.0501 9.50454 44.5126C12.7895 52.9676 21.4795 52.1576 30.4895 52.1576C39.182 52.1576 48.1445 53.0626 51.477 44.5126C52.8395 40.9876 52.6395 36.5226 52.6395 30.0026C52.6395 21.3476 53.117 15.7601 48.9195 11.5651C44.6695 7.31505 38.922 7.84755 30.4845 7.84755H30.4945ZM28.5095 11.8401C47.4445 11.8101 49.8545 9.70506 48.5245 38.9476C48.052 49.2901 40.177 48.1551 30.497 48.1551C12.847 48.1551 12.3395 47.6501 12.3395 29.9926C12.3395 12.1301 13.7395 11.8501 28.5095 11.8351V11.8401ZM42.3195 15.5176C41.6147 15.5176 40.9388 15.7975 40.4404 16.2959C39.942 16.7943 39.662 17.4702 39.662 18.1751C39.662 18.8799 39.942 19.5558 40.4404 20.0542C40.9388 20.5526 41.6147 20.8326 42.3195 20.8326C43.0243 20.8326 43.7003 20.5526 44.1987 20.0542C44.697 19.5558 44.977 18.8799 44.977 18.1751C44.977 17.4702 44.697 16.7943 44.1987 16.2959C43.7003 15.7975 43.0243 15.5176 42.3195 15.5176ZM30.4945 18.6251C29.0006 18.6252 27.5213 18.9196 26.1411 19.4915C24.761 20.0634 23.5069 20.9015 22.4507 21.958C20.3175 24.0917 19.1192 26.9854 19.1195 30.0026C19.1199 33.0197 20.3188 35.9132 22.4524 38.0464C24.5861 40.1796 27.4799 41.3779 30.497 41.3776C33.5142 41.3772 36.4077 40.1783 38.5409 38.0446C40.6741 35.9109 41.8724 33.0172 41.872 30.0001C41.8717 26.9829 40.6728 24.0894 38.5391 21.9562C36.4054 19.823 33.5117 18.6247 30.4945 18.6251ZM30.4945 22.6176C40.257 22.6176 40.2695 37.3876 30.4945 37.3876C20.7345 37.3876 20.7195 22.6176 30.4945 22.6176Z" fill="white"/>
</g>
<defs>
<linearGradient id="paint0_linear_20057_6718" x1="4.36433" y1="56.168" x2="60.128" y2="7.90517" gradientUnits="userSpaceOnUse">
<stop stop-color="#FFDD55"/>
<stop offset="0.5" stop-color="#FF543E"/>
<stop offset="1" stop-color="#C837AB"/>
</linearGradient>
<clipPath id="clip0_20057_6718">
<rect width="60" height="60" fill="white" transform="translate(0.5)"/>
</clipPath>
</defs>
</svg>
