<svg width="258" height="114" viewBox="0 0 258 114" fill="none" xmlns="http://www.w3.org/2000/svg">
<path d="M96.1113 35.8245C40.7664 32.9843 16.4331 69.753 10.2922 108.21" stroke="#292929" stroke-width="2.7411" stroke-miterlimit="10" stroke-linecap="round" stroke-linejoin="round"/>
<path d="M18.5806 104.21L10.1368 112.577L2.00012 100.786" stroke="#292929" stroke-width="2.7411" stroke-miterlimit="10" stroke-linecap="round" stroke-linejoin="round"/>
<path d="M136.078 25.612C135.853 25.6293 135.645 25.5773 135.454 25.456C135.281 25.352 135.159 25.2133 135.09 25.04C135.021 24.9533 134.908 24.7627 134.752 24.468C134.596 24.1907 134.501 23.948 134.466 23.74C134.414 23.1853 134.379 22.648 134.362 22.128C134.362 21.608 134.388 20.88 134.44 19.944C134.492 19.1813 134.596 18.5053 134.752 17.916C134.908 17.3093 135.064 16.798 135.22 16.382C135.376 15.9487 135.497 15.628 135.584 15.42C135.671 15.1947 135.688 15.082 135.636 15.082C135.567 15.082 135.489 15.1513 135.402 15.29C135.333 15.4113 135.246 15.576 135.142 15.784C135.055 15.992 134.951 16.2173 134.83 16.46C134.726 16.7027 134.613 16.9367 134.492 17.162C134.249 17.6993 133.963 18.2713 133.634 18.878C133.322 19.4673 133.001 20.0393 132.672 20.594C132.343 21.1487 132.057 21.634 131.814 22.05C131.658 22.2233 131.476 22.4747 131.268 22.804C131.06 23.116 130.835 23.4453 130.592 23.792C130.349 24.1387 130.098 24.4247 129.838 24.65C129.457 25.014 129.067 25.2307 128.668 25.3C128.269 25.3867 127.897 25.3433 127.55 25.17C127.377 25.1527 127.195 25.0573 127.004 24.884C126.813 24.728 126.657 24.5287 126.536 24.286C126.432 24.0433 126.406 23.818 126.458 23.61C126.441 23.3673 126.441 22.9947 126.458 22.492C126.493 21.972 126.545 21.4087 126.614 20.802C126.683 20.178 126.753 19.58 126.822 19.008C126.909 18.436 126.987 17.9593 127.056 17.578C127.212 16.4687 127.42 15.3333 127.68 14.172C127.957 13.0107 128.209 11.8407 128.434 10.662C128.573 10.3153 128.694 9.92533 128.798 9.492C128.919 9.04133 129.041 8.62533 129.162 8.244C129.179 7.86267 129.318 7.62867 129.578 7.542C129.838 7.438 130.115 7.42067 130.41 7.49C130.722 7.55933 130.939 7.68067 131.06 7.854C131.233 8.02733 131.398 8.296 131.554 8.66C131.71 9.024 131.667 9.48333 131.424 10.038C131.077 10.8873 130.739 11.9273 130.41 13.158C130.098 14.3713 129.812 15.8447 129.552 17.578C129.483 17.994 129.405 18.462 129.318 18.982C129.249 19.4847 129.179 19.97 129.11 20.438C129.058 20.906 129.015 21.296 128.98 21.608C128.963 21.9027 128.971 22.0587 129.006 22.076C129.145 22.1107 129.292 22.0327 129.448 21.842C129.621 21.6513 129.803 21.348 129.994 20.932C130.705 19.7533 131.372 18.5833 131.996 17.422C132.637 16.2607 133.279 15.0473 133.92 13.782C134.215 13.2793 134.509 12.7333 134.804 12.144C135.116 11.5373 135.411 10.9827 135.688 10.48C135.983 9.96 136.269 9.45733 136.546 8.972C136.823 8.48667 137.066 8.07933 137.274 7.75C137.482 7.40333 137.638 7.21267 137.742 7.178C138.21 7.178 138.557 7.29933 138.782 7.542C139.025 7.78467 139.215 8.07933 139.354 8.426C139.389 8.51267 139.406 8.66 139.406 8.868C139.423 9.076 139.397 9.258 139.328 9.414C139.311 9.53533 139.233 9.78667 139.094 10.168C138.973 10.5493 138.86 10.974 138.756 11.442C138.583 11.91 138.427 12.378 138.288 12.846C138.167 13.2967 138.08 13.6693 138.028 13.964C137.889 14.7093 137.716 15.524 137.508 16.408C137.3 17.292 137.118 18.176 136.962 19.06C136.823 19.9267 136.745 20.698 136.728 21.374C136.711 21.8593 136.711 22.18 136.728 22.336C136.763 22.4747 136.815 22.622 136.884 22.778C136.919 22.9167 136.997 22.9513 137.118 22.882C137.239 22.8127 137.361 22.6913 137.482 22.518C137.725 22.154 137.907 21.842 138.028 21.582C138.167 21.322 138.305 21.0447 138.444 20.75C138.583 20.438 138.773 20.048 139.016 19.58C139.449 18.7827 139.891 17.9073 140.342 16.954C140.81 16.0007 141.252 15.056 141.668 14.12C142.101 13.184 142.474 12.352 142.786 11.624C143.115 10.688 143.393 9.934 143.618 9.362C143.843 8.77267 144.051 8.322 144.242 8.01C144.433 7.698 144.615 7.49 144.788 7.386C144.875 7.31667 145.057 7.282 145.334 7.282C145.629 7.282 145.854 7.35133 146.01 7.49C146.079 7.55933 146.201 7.672 146.374 7.828C146.547 7.984 146.625 8.166 146.608 8.374C146.521 8.65133 146.357 9.102 146.114 9.726C145.889 10.35 145.62 11.0433 145.308 11.806C145.013 12.5513 144.719 13.2707 144.424 13.964C144.147 14.64 143.913 15.1773 143.722 15.576C143.531 15.94 143.349 16.252 143.176 16.512C143.003 16.772 142.916 16.9713 142.916 17.11C142.916 17.1793 142.829 17.396 142.656 17.76C142.483 18.1067 142.257 18.5313 141.98 19.034C141.72 19.5367 141.434 20.0567 141.122 20.594C140.81 21.1313 140.515 21.6253 140.238 22.076C139.961 22.5267 139.727 22.8733 139.536 23.116C139.103 23.6533 138.635 24.104 138.132 24.468C137.647 24.8493 137.213 25.1353 136.832 25.326C136.451 25.5167 136.199 25.612 136.078 25.612ZM145.178 23.558C145.039 23.4193 144.935 23.2113 144.866 22.934C144.814 22.6567 144.797 22.388 144.814 22.128C144.831 21.8507 144.875 21.6427 144.944 21.504C144.944 21.3653 144.961 21.2613 144.996 21.192C145.048 21.1053 145.065 21.0273 145.048 20.958C145.031 20.8887 145.048 20.7673 145.1 20.594C145.152 20.4207 145.204 20.256 145.256 20.1C145.377 19.8227 145.516 19.4673 145.672 19.034C145.828 18.5833 145.984 18.1327 146.14 17.682C146.296 17.214 146.426 16.8153 146.53 16.486C146.634 16.1393 146.695 15.9313 146.712 15.862C146.712 15.654 146.851 15.5413 147.128 15.524C147.336 15.4547 147.587 15.5413 147.882 15.784C148.177 16.0267 148.411 16.2867 148.584 16.564C148.723 16.7027 148.775 16.8847 148.74 17.11C148.705 17.3353 148.593 17.656 148.402 18.072C148.333 18.2107 148.246 18.4447 148.142 18.774C148.055 19.086 147.995 19.346 147.96 19.554C147.891 19.6927 147.804 19.892 147.7 20.152C147.613 20.3947 147.535 20.6287 147.466 20.854C147.431 20.9407 147.397 21.1053 147.362 21.348C147.327 21.5733 147.284 21.8073 147.232 22.05C147.18 22.2927 147.111 22.4833 147.024 22.622C146.868 23.3327 146.591 23.7487 146.192 23.87C145.811 23.9913 145.473 23.8873 145.178 23.558ZM147.986 13.132C147.795 12.9933 147.648 12.8287 147.544 12.638C147.457 12.43 147.405 12.248 147.388 12.092C147.388 11.936 147.405 11.8407 147.44 11.806C147.613 11.6153 147.761 11.364 147.882 11.052C148.021 10.74 148.168 10.454 148.324 10.194C148.359 10.142 148.402 10.0727 148.454 9.986C148.523 9.882 148.593 9.82133 148.662 9.804C148.87 9.66533 149.156 9.674 149.52 9.83C149.901 9.986 150.179 10.2027 150.352 10.48C150.508 10.8093 150.551 11.1473 150.482 11.494C150.43 11.8407 150.248 12.2047 149.936 12.586C149.676 12.9327 149.347 13.158 148.948 13.262C148.549 13.3487 148.229 13.3053 147.986 13.132ZM152.05 24.026C151.859 23.9913 151.651 23.8787 151.426 23.688C151.2 23.48 150.992 23.2547 150.802 23.012C150.628 22.752 150.516 22.5353 150.464 22.362C150.464 22.3273 150.438 22.284 150.386 22.232C150.351 22.18 150.334 22.154 150.334 22.154C150.264 22.102 150.221 21.8767 150.204 21.478C150.204 21.062 150.23 20.6027 150.282 20.1C150.334 19.5973 150.394 19.1987 150.464 18.904C150.55 18.6267 150.68 18.254 150.854 17.786C151.027 17.3007 151.174 16.8673 151.296 16.486L151.998 14.978L150.958 14.692C150.836 14.6573 150.732 14.588 150.646 14.484C150.576 14.38 150.542 14.2933 150.542 14.224C150.542 14.0853 150.62 13.886 150.776 13.626C150.932 13.366 151.044 13.236 151.114 13.236C151.2 13.2533 151.356 13.262 151.582 13.262C151.824 13.262 152.058 13.2533 152.284 13.236C152.509 13.2187 152.648 13.2013 152.7 13.184C152.769 13.1493 152.838 13.106 152.908 13.054C152.977 12.9847 153.029 12.8893 153.064 12.768C153.15 12.5773 153.228 12.43 153.298 12.326C153.367 12.222 153.462 12.066 153.584 11.858C153.705 11.6327 153.8 11.442 153.87 11.286C153.956 11.13 154.086 10.9133 154.26 10.636C154.346 10.5147 154.442 10.3673 154.546 10.194C154.65 10.0207 154.78 9.87333 154.936 9.752C155.092 9.61333 155.343 9.518 155.69 9.466C156.054 9.39667 156.366 9.47467 156.626 9.7C156.764 9.87333 156.842 10.038 156.86 10.194C156.877 10.35 156.808 10.5493 156.652 10.792C156.513 11.0867 156.348 11.3553 156.158 11.598C155.984 11.8233 155.82 12.0833 155.664 12.378C155.386 12.7593 155.334 12.976 155.508 13.028C155.681 13.08 156.166 13.0453 156.964 12.924C157.466 12.8373 157.83 12.8893 158.056 13.08C158.281 13.2707 158.411 13.5133 158.446 13.808C158.498 14.224 158.454 14.4753 158.316 14.562C158.177 14.6487 157.778 14.692 157.12 14.692C156.704 14.7613 156.348 14.8047 156.054 14.822C155.759 14.822 155.542 14.822 155.404 14.822C155.178 14.8393 155.031 14.848 154.962 14.848C154.892 14.848 154.788 14.8653 154.65 14.9C154.511 14.9347 154.407 14.9953 154.338 15.082C154.286 15.1513 154.225 15.2553 154.156 15.394C154.086 15.4633 153.982 15.6453 153.844 15.94C153.705 16.2347 153.532 16.5553 153.324 16.902C153.081 17.63 152.873 18.332 152.7 19.008C152.544 19.6667 152.405 20.3253 152.284 20.984C152.232 21.3133 152.24 21.556 152.31 21.712C152.396 21.8507 152.622 21.9373 152.986 21.972C153.176 21.9893 153.454 21.9893 153.818 21.972C154.182 21.9373 154.485 21.8853 154.728 21.816C154.918 21.7293 155.118 21.6427 155.326 21.556C155.534 21.452 155.724 21.348 155.898 21.244C156.054 21.1573 156.21 21.0707 156.366 20.984C156.522 20.88 156.6 20.828 156.6 20.828C156.686 20.6893 156.808 20.7153 156.964 20.906C157.137 21.0793 157.258 21.27 157.328 21.478C157.328 21.686 157.284 21.9373 157.198 22.232C157.111 22.5093 156.79 22.804 156.236 23.116C155.456 23.6013 154.676 23.896 153.896 24C153.116 24.104 152.5 24.1127 152.05 24.026ZM167.157 23.584C166.724 23.792 166.299 23.87 165.883 23.818C165.484 23.7487 165.146 23.532 164.869 23.168C164.609 22.7867 164.479 22.232 164.479 21.504C164.479 21.3133 164.488 21.088 164.505 20.828C164.54 20.5507 164.592 20.2647 164.661 19.97C164.73 19.658 164.817 19.346 164.921 19.034C164.973 18.878 165.042 18.722 165.129 18.566C165.233 18.41 165.25 18.332 165.181 18.332C165.112 18.332 165.025 18.3753 164.921 18.462C164.834 18.5487 164.765 18.618 164.713 18.67C164.28 19.0513 163.881 19.45 163.517 19.866C163.17 20.2647 162.858 20.6633 162.581 21.062C162.321 21.4433 162.113 21.7987 161.957 22.128C161.818 22.4573 161.749 22.7347 161.749 22.96C161.749 23.22 161.619 23.402 161.359 23.506C161.099 23.61 160.874 23.6013 160.683 23.48C160.354 23.2893 160.05 22.9947 159.773 22.596C159.513 22.1973 159.409 21.6773 159.461 21.036C159.513 20.2213 159.582 19.4933 159.669 18.852C159.756 18.2107 159.894 17.5173 160.085 16.772C160.293 16.0093 160.562 15.082 160.891 13.99C161.116 13.3833 161.324 12.8113 161.515 12.274C161.706 11.7193 161.87 11.2513 162.009 10.87C162.165 10.4887 162.26 10.2547 162.295 10.168C162.382 10.0813 162.494 9.87333 162.633 9.544C162.772 9.19733 162.893 8.85067 162.997 8.504C163.118 8.15733 163.179 7.94933 163.179 7.88C163.179 7.74133 163.205 7.62 163.257 7.516C163.326 7.412 163.387 7.31667 163.439 7.23C163.543 6.98733 163.63 6.82267 163.699 6.736C163.786 6.632 163.864 6.58 163.933 6.58C164.02 6.58 164.158 6.62333 164.349 6.71C164.557 6.79667 164.748 6.90933 164.921 7.048C165.112 7.16933 165.224 7.29933 165.259 7.438C165.38 7.68067 165.45 7.932 165.467 8.192C165.484 8.43467 165.424 8.738 165.285 9.102C165.146 9.466 164.904 9.96867 164.557 10.61C164.28 11.1473 164.028 11.702 163.803 12.274C163.578 12.846 163.361 13.444 163.153 14.068C163.066 14.328 162.954 14.6747 162.815 15.108C162.676 15.524 162.538 15.9573 162.399 16.408C162.278 16.8413 162.174 17.2313 162.087 17.578C162 17.9247 161.957 18.15 161.957 18.254C161.957 18.3753 162.026 18.436 162.165 18.436C162.304 18.4187 162.442 18.3147 162.581 18.124C162.65 17.9853 162.763 17.8553 162.919 17.734C163.075 17.5953 163.214 17.4567 163.335 17.318C163.474 17.1447 163.638 16.9453 163.829 16.72C164.037 16.4773 164.254 16.252 164.479 16.044C164.722 15.8187 164.938 15.6367 165.129 15.498C165.337 15.3593 165.51 15.29 165.649 15.29C165.978 15.29 166.256 15.3853 166.481 15.576C166.706 15.7667 166.897 16.0613 167.053 16.46C167.105 16.512 167.157 16.5813 167.209 16.668C167.261 16.7373 167.296 16.7893 167.313 16.824C167.4 16.8933 167.443 17.1707 167.443 17.656C167.443 18.124 167.304 18.774 167.027 19.606C166.871 20.2473 166.776 20.724 166.741 21.036C166.724 21.348 166.784 21.504 166.923 21.504C166.923 21.504 167.01 21.452 167.183 21.348C167.374 21.244 167.573 21.1313 167.781 21.01C168.284 20.6807 168.648 20.5767 168.873 20.698C169.098 20.8193 169.211 20.9753 169.211 21.166C169.211 21.322 169.15 21.504 169.029 21.712C168.925 21.92 168.873 22.0587 168.873 22.128C168.873 22.128 168.873 22.1367 168.873 22.154C168.873 22.154 168.873 22.1887 168.873 22.258C168.873 22.2927 168.76 22.414 168.535 22.622C168.31 22.83 168.058 23.038 167.781 23.246C167.521 23.4367 167.313 23.5493 167.157 23.584ZM175.765 29.07C175.488 29.2953 175.132 29.4427 174.699 29.512C174.266 29.5813 173.832 29.5553 173.399 29.434C172.966 29.33 172.619 29.122 172.359 28.81C172.255 28.5673 172.272 28.3247 172.411 28.082C172.532 27.8393 172.714 27.6487 172.957 27.51C173.182 27.3887 173.399 27.38 173.607 27.484C173.78 27.5533 173.98 27.562 174.205 27.51C174.43 27.4753 174.656 27.3107 174.881 27.016C175.02 26.86 175.176 26.6 175.349 26.236C175.54 25.8893 175.722 25.4993 175.895 25.066C176.086 24.65 176.268 24.2513 176.441 23.87C176.614 23.4713 176.753 23.1507 176.857 22.908C176.944 22.6827 177.022 22.466 177.091 22.258C177.16 22.05 177.195 21.9113 177.195 21.842C177.264 21.7553 177.334 21.608 177.403 21.4C177.472 21.192 177.542 20.9493 177.611 20.672C177.663 20.6373 177.706 20.6027 177.741 20.568C177.776 20.516 177.758 20.4553 177.689 20.386L178.235 18.41C178.339 17.942 178.452 17.5433 178.573 17.214C178.694 16.8847 178.755 16.6853 178.755 16.616C178.772 16.5467 178.79 16.408 178.807 16.2C178.842 15.992 178.911 15.8013 179.015 15.628C179.032 15.368 179.067 15.108 179.119 14.848C179.188 14.588 179.223 14.4233 179.223 14.354C179.292 14.302 179.448 14.25 179.691 14.198C179.951 14.1287 180.228 14.2153 180.523 14.458C180.679 14.5793 180.809 14.7267 180.913 14.9C181.017 15.0733 181.069 15.3593 181.069 15.758C181.069 16.1393 180.965 16.746 180.757 17.578C180.74 17.682 180.688 17.89 180.601 18.202C180.532 18.514 180.436 18.8693 180.315 19.268C180.211 19.6493 180.107 20.0307 180.003 20.412C179.899 20.776 179.804 21.0707 179.717 21.296C179.648 21.556 179.578 21.7987 179.509 22.024C179.44 22.2493 179.396 22.4227 179.379 22.544C179.31 22.6653 179.214 22.8647 179.093 23.142C178.989 23.4193 178.885 23.688 178.781 23.948C178.677 24.208 178.599 24.3813 178.547 24.468C178.53 24.5373 178.495 24.598 178.443 24.65C178.408 24.7193 178.391 24.7887 178.391 24.858C178.374 24.91 178.296 25.118 178.157 25.482C178.018 25.8633 177.802 26.314 177.507 26.834C177.42 27.042 177.264 27.302 177.039 27.614C176.814 27.926 176.58 28.212 176.337 28.472C176.112 28.7493 175.921 28.9487 175.765 29.07ZM181.459 12.04C181.268 12.0573 181.008 12.0227 180.679 11.936C180.367 11.8493 180.15 11.7627 180.029 11.676C179.734 11.4333 179.622 11.1213 179.691 10.74C179.778 10.3587 179.968 10.0033 180.263 9.674C180.558 9.34467 180.87 9.154 181.199 9.102C181.338 9.08467 181.511 9.128 181.719 9.232C181.944 9.336 182.152 9.47467 182.343 9.648C182.534 9.804 182.638 9.99467 182.655 10.22C182.69 10.5493 182.586 10.8873 182.343 11.234C182.1 11.5807 181.806 11.8493 181.459 12.04ZM188.996 24.156C188.875 24.2253 188.71 24.1993 188.502 24.078C188.311 23.9567 188.121 23.7747 187.93 23.532C187.809 23.324 187.713 23.116 187.644 22.908C187.592 22.6827 187.566 22.3533 187.566 21.92C187.583 21.5733 187.583 21.3393 187.566 21.218C187.566 21.0793 187.488 21.0707 187.332 21.192C187.193 21.296 186.907 21.556 186.474 21.972C186.041 22.4053 185.625 22.778 185.226 23.09C184.845 23.3847 184.533 23.5233 184.29 23.506C184.169 23.506 184.004 23.428 183.796 23.272C183.588 23.116 183.389 22.9253 183.198 22.7C183.007 22.4573 182.869 22.232 182.782 22.024C182.678 21.608 182.669 21.0707 182.756 20.412C182.86 19.7533 183.025 19.0687 183.25 18.358C183.475 17.63 183.727 16.954 184.004 16.33C184.299 15.6887 184.585 15.1773 184.862 14.796C185.157 14.3973 185.408 14.2067 185.616 14.224C185.911 14.2587 186.162 14.406 186.37 14.666C186.595 14.9087 186.769 15.1773 186.89 15.472C186.959 15.5933 186.985 15.6973 186.968 15.784C186.968 15.8707 186.899 15.9747 186.76 16.096C186.604 16.304 186.413 16.6073 186.188 17.006C185.98 17.3873 185.763 17.8033 185.538 18.254C185.33 18.7047 185.139 19.138 184.966 19.554C184.81 19.9527 184.697 20.282 184.628 20.542C184.559 20.802 184.559 20.932 184.628 20.932C184.871 20.932 185.096 20.8713 185.304 20.75C185.512 20.6113 185.772 20.3947 186.084 20.1C186.448 19.736 186.769 19.372 187.046 19.008C187.323 18.6267 187.609 18.1933 187.904 17.708C188.129 17.3613 188.363 16.98 188.606 16.564C188.866 16.148 189.031 15.8533 189.1 15.68C189.343 15.2293 189.525 14.8913 189.646 14.666C189.767 14.4407 189.915 14.302 190.088 14.25C190.175 14.25 190.296 14.25 190.452 14.25C190.608 14.25 190.686 14.25 190.686 14.25C190.79 14.2673 190.911 14.3453 191.05 14.484C191.189 14.5533 191.327 14.6487 191.466 14.77C191.622 14.8913 191.7 14.9953 191.7 15.082C191.631 15.2553 191.518 15.5153 191.362 15.862C191.223 16.1913 191.119 16.434 191.05 16.59C190.721 17.3353 190.4 18.072 190.088 18.8C189.793 19.5107 189.577 20.2387 189.438 20.984C189.403 21.2267 189.395 21.5127 189.412 21.842C189.447 22.154 189.499 22.3793 189.568 22.518C189.62 22.622 189.681 22.7433 189.75 22.882C189.837 23.0033 189.932 23.1073 190.036 23.194C190.192 23.298 190.183 23.428 190.01 23.584C189.854 23.74 189.655 23.8787 189.412 24C189.187 24.104 189.048 24.156 188.996 24.156ZM193.679 24.156C193.09 23.9133 192.657 23.662 192.379 23.402C192.119 23.1247 192.015 22.882 192.067 22.674C192.102 22.57 192.163 22.4747 192.249 22.388C192.336 22.3013 192.527 22.2667 192.821 22.284C193.133 22.284 193.61 22.362 194.251 22.518C194.442 22.518 194.633 22.5093 194.823 22.492C195.014 22.4747 195.187 22.4487 195.343 22.414C195.517 22.3793 195.655 22.336 195.759 22.284C195.846 22.2493 195.872 22.206 195.837 22.154C195.803 22.0847 195.742 22.0153 195.655 21.946C195.586 21.8593 195.508 21.8073 195.421 21.79C195.335 21.7553 195.257 21.738 195.187 21.738C195.153 21.6513 195.075 21.5647 194.953 21.478C194.849 21.3913 194.719 21.296 194.563 21.192C194.182 20.88 193.835 20.6027 193.523 20.36C193.211 20.1173 193.09 19.9353 193.159 19.814C193.159 19.7447 193.159 19.71 193.159 19.71C193.159 19.6927 193.159 19.684 193.159 19.684C193.038 19.684 192.925 19.5193 192.821 19.19C192.717 18.8433 192.665 18.5313 192.665 18.254C192.665 17.9073 192.735 17.5607 192.873 17.214C193.029 16.8673 193.22 16.538 193.445 16.226C193.688 15.914 193.931 15.6367 194.173 15.394C194.503 15.082 194.849 14.7787 195.213 14.484C195.595 14.172 196.002 13.8947 196.435 13.652C196.886 13.4093 197.38 13.2187 197.917 13.08C198.16 13.028 198.437 13.002 198.749 13.002C199.061 13.002 199.287 13.0453 199.425 13.132C199.564 13.0453 199.737 13.0713 199.945 13.21C200.153 13.3313 200.361 13.5047 200.569 13.73C200.777 13.9553 200.933 14.1807 201.037 14.406C201.037 14.614 201.029 14.874 201.011 15.186C201.011 15.4807 200.994 15.7407 200.959 15.966C200.925 16.1913 200.847 16.304 200.725 16.304C200.725 16.304 200.699 16.3127 200.647 16.33C200.613 16.33 200.595 16.3733 200.595 16.46C200.595 16.6333 200.465 16.8327 200.205 17.058C199.876 17.2833 199.564 17.4653 199.269 17.604C198.975 17.7427 198.749 17.7513 198.593 17.63C198.489 17.5607 198.394 17.4913 198.307 17.422C198.221 17.3527 198.143 17.266 198.073 17.162C198.073 17.162 198.047 17.1273 197.995 17.058C197.961 16.9713 197.943 16.8933 197.943 16.824C197.943 16.7547 197.969 16.694 198.021 16.642C198.073 16.5727 198.099 16.538 198.099 16.538C198.342 16.3127 198.524 16.1047 198.645 15.914C198.784 15.7233 198.879 15.5587 198.931 15.42C198.983 15.264 199.009 15.1427 199.009 15.056C199.009 14.952 198.983 14.8913 198.931 14.874C198.897 14.8393 198.81 14.822 198.671 14.822C198.585 14.822 198.394 14.8913 198.099 15.03C197.822 15.1687 197.527 15.342 197.215 15.55C196.903 15.7407 196.661 15.914 196.487 16.07C196.418 16.1913 196.366 16.2693 196.331 16.304C196.314 16.3387 196.271 16.356 196.201 16.356C196.201 16.2867 196.158 16.2953 196.071 16.382C195.985 16.4687 195.881 16.59 195.759 16.746C195.638 16.902 195.517 17.0667 195.395 17.24C195.274 17.4133 195.179 17.552 195.109 17.656C195.092 17.812 195.049 17.9593 194.979 18.098C194.927 18.2193 194.91 18.3493 194.927 18.488C194.945 18.6613 195.031 18.826 195.187 18.982C195.343 19.138 195.569 19.3373 195.863 19.58C196.47 20.0307 196.921 20.386 197.215 20.646C197.527 20.906 197.744 21.114 197.865 21.27C197.987 21.426 198.065 21.582 198.099 21.738C198.394 22.2753 198.429 22.7433 198.203 23.142C197.978 23.5233 197.631 23.818 197.163 24.026C196.99 24.1127 196.687 24.1907 196.253 24.26C195.82 24.3467 195.361 24.3813 194.875 24.364C194.407 24.364 194.009 24.2947 193.679 24.156ZM204.771 24.156C204.528 24.0867 204.286 23.9653 204.043 23.792C203.8 23.6187 203.549 23.4193 203.289 23.194C203.081 22.9167 202.934 22.6653 202.847 22.44C202.76 22.1973 202.708 21.92 202.691 21.608C202.691 21.2787 202.691 20.8627 202.691 20.36C202.691 20.152 202.726 19.8573 202.795 19.476C202.882 19.0947 202.968 18.696 203.055 18.28C203.159 17.864 203.254 17.5 203.341 17.188C203.428 16.8587 203.48 16.642 203.497 16.538C203.549 16.3127 203.462 16.1827 203.237 16.148C203.012 16.1133 202.76 16.1047 202.483 16.122C202.223 16.122 202.05 16.096 201.963 16.044C201.894 16.0267 201.859 15.94 201.859 15.784C201.859 15.6107 201.859 15.524 201.859 15.524C201.859 15.4547 201.824 15.4113 201.755 15.394C201.686 15.3593 201.625 15.2987 201.573 15.212C201.538 15.1427 201.582 15.0127 201.703 14.822C201.824 14.6313 201.98 14.5187 202.171 14.484C202.327 14.4493 202.561 14.4233 202.873 14.406C203.185 14.3713 203.497 14.3107 203.809 14.224C204.138 14.12 204.39 13.964 204.563 13.756C204.719 13.3747 204.892 12.9673 205.083 12.534C205.274 12.0833 205.456 11.6933 205.629 11.364C205.802 11.0173 205.924 10.8007 205.993 10.714C206.288 10.558 206.591 10.4973 206.903 10.532C207.215 10.5493 207.458 10.6967 207.631 10.974C207.718 11.0953 207.787 11.182 207.839 11.234C207.908 11.286 207.934 11.364 207.917 11.468C207.917 11.572 207.848 11.7627 207.709 12.04C207.588 12.3 207.38 12.7073 207.085 13.262C206.998 13.4353 206.92 13.5913 206.851 13.73C206.782 13.8513 206.747 13.912 206.747 13.912C206.816 13.9293 206.92 13.938 207.059 13.938C207.198 13.938 207.371 13.9293 207.579 13.912C207.77 13.8773 207.978 13.8513 208.203 13.834C208.428 13.7993 208.628 13.7993 208.801 13.834C209.2 13.834 209.494 13.9467 209.685 14.172C209.876 14.3973 209.98 14.6833 209.997 15.03C210.032 15.2207 209.962 15.3853 209.789 15.524C209.616 15.6627 209.295 15.732 208.827 15.732C208.671 15.732 208.446 15.7407 208.151 15.758C207.856 15.7753 207.553 15.7927 207.241 15.81C206.929 15.8273 206.66 15.8533 206.435 15.888C206.227 15.9053 206.123 15.9313 206.123 15.966C206.071 16.0007 205.984 16.1393 205.863 16.382C205.759 16.6073 205.646 16.8847 205.525 17.214C205.421 17.5433 205.326 17.8553 205.239 18.15C205.118 18.7393 205.031 19.3113 204.979 19.866C204.927 20.4207 204.918 20.906 204.953 21.322C205.005 21.7207 205.109 22.0067 205.265 22.18C205.421 22.336 205.655 22.336 205.967 22.18C206.296 22.0067 206.6 21.8073 206.877 21.582C207.189 21.322 207.458 21.244 207.683 21.348C207.908 21.4347 208.047 21.6253 208.099 21.92C208.168 22.1973 208.09 22.5007 207.865 22.83C207.657 23.1593 207.362 23.4367 206.981 23.662C206.6 23.8873 206.21 24.0433 205.811 24.13C205.412 24.234 205.066 24.2427 204.771 24.156ZM217.829 23.532C217.621 23.584 217.387 23.5233 217.127 23.35C216.867 23.1767 216.633 22.96 216.425 22.7C216.217 22.44 216.087 22.206 216.035 21.998C215.966 21.634 215.983 21.192 216.087 20.672C216.209 20.1347 216.408 19.5713 216.685 18.982C216.963 18.3753 217.309 17.786 217.725 17.214C218.141 16.6247 218.609 16.096 219.129 15.628C219.649 15.16 220.213 14.796 220.819 14.536C221.079 14.3973 221.261 14.3107 221.365 14.276C221.469 14.224 221.573 14.224 221.677 14.276C221.781 14.3107 221.963 14.3973 222.223 14.536C222.466 14.6053 222.709 14.692 222.951 14.796C223.211 14.8827 223.437 15.056 223.627 15.316C223.766 15.576 223.87 15.836 223.939 16.096C224.009 16.356 224.069 16.6507 224.121 16.98C224.26 17.4133 224.312 17.6993 224.277 17.838C224.243 17.9593 224.191 18.0547 224.121 18.124C223.983 18.2973 223.948 18.384 224.017 18.384C224.017 18.384 224.009 18.4187 223.991 18.488C223.991 18.54 223.957 18.6267 223.887 18.748C223.766 19.1293 223.671 19.4933 223.601 19.84C223.549 20.1693 223.558 20.464 223.627 20.724C223.766 21.1053 223.948 21.3307 224.173 21.4C224.416 21.4693 224.728 21.3133 225.109 20.932C225.3 20.7933 225.517 20.7067 225.759 20.672C226.002 20.62 226.123 20.6633 226.123 20.802C226.123 20.802 226.149 20.828 226.201 20.88C226.253 20.9147 226.314 20.932 226.383 20.932C226.47 20.932 226.505 21.0187 226.487 21.192C226.47 21.348 226.435 21.53 226.383 21.738C226.331 21.946 226.262 22.1193 226.175 22.258C225.915 22.518 225.785 22.6913 225.785 22.778C225.785 22.778 225.751 22.8127 225.681 22.882C225.629 22.934 225.534 23.0207 225.395 23.142C225.083 23.3327 224.685 23.428 224.199 23.428C223.731 23.428 223.367 23.3327 223.107 23.142C222.847 22.9513 222.587 22.7173 222.327 22.44C222.085 22.1627 221.929 21.9027 221.859 21.66L221.729 21.4L220.975 21.894C220.785 22.0847 220.646 22.232 220.559 22.336C220.473 22.4227 220.395 22.5007 220.325 22.57C220.273 22.6393 220.213 22.7 220.143 22.752C220.091 22.804 220.031 22.83 219.961 22.83C219.892 22.83 219.831 22.83 219.779 22.83C219.727 22.83 219.701 22.83 219.701 22.83C219.701 22.8993 219.58 22.9947 219.337 23.116C219.095 23.22 218.826 23.3153 218.531 23.402C218.237 23.4887 218.003 23.532 217.829 23.532ZM218.375 21.348C218.479 21.348 218.635 21.2873 218.843 21.166C219.069 21.0273 219.311 20.8627 219.571 20.672C219.831 20.4813 220.065 20.2907 220.273 20.1C220.499 19.9093 220.663 19.7533 220.767 19.632C220.837 19.5627 220.915 19.45 221.001 19.294C221.105 19.138 221.218 18.9993 221.339 18.878C221.738 18.4273 221.989 18.072 222.093 17.812C222.197 17.5347 222.154 17.24 221.963 16.928C221.894 16.7373 221.807 16.6333 221.703 16.616C221.599 16.5987 221.383 16.6593 221.053 16.798C220.845 16.9193 220.62 17.1187 220.377 17.396C220.135 17.6733 219.883 17.9853 219.623 18.332C219.381 18.6787 219.155 19.034 218.947 19.398C218.739 19.762 218.566 20.0913 218.427 20.386C218.306 20.6807 218.245 20.9147 218.245 21.088C218.245 21.1573 218.263 21.218 218.297 21.27C218.349 21.322 218.375 21.348 218.375 21.348ZM127.082 57.99C126.805 57.99 126.588 57.8687 126.432 57.626C126.276 57.3833 126.198 57.2273 126.198 57.158C126.215 57.0367 126.241 56.924 126.276 56.82C126.311 56.7333 126.337 56.6467 126.354 56.56C126.389 56.3867 126.406 56.1787 126.406 55.936C126.406 55.7107 126.432 55.2773 126.484 54.636C126.536 53.9427 126.579 53.3707 126.614 52.92C126.666 52.4693 126.718 52.0707 126.77 51.724C126.822 51.3773 126.883 51.0307 126.952 50.684C127.021 50.32 127.117 49.878 127.238 49.358C127.325 48.7687 127.325 48.4047 127.238 48.266C127.169 48.1273 127.039 48.0493 126.848 48.032C126.519 47.9973 126.233 47.9107 125.99 47.772C125.747 47.616 125.591 47.434 125.522 47.226C125.349 47.0527 125.305 46.8967 125.392 46.758C125.496 46.6193 125.687 46.5067 125.964 46.42C126.241 46.316 126.536 46.2727 126.848 46.29C127.143 46.2727 127.368 46.2553 127.524 46.238C127.697 46.2033 127.836 46.1167 127.94 45.978C128.044 45.822 128.148 45.562 128.252 45.198C128.287 45.042 128.347 44.8427 128.434 44.6C128.538 44.3573 128.633 44.1407 128.72 43.95C128.807 43.7593 128.85 43.664 128.85 43.664C129.006 43.5427 129.084 43.3867 129.084 43.196C129.101 42.9533 129.214 42.6327 129.422 42.234C129.647 41.818 130.003 41.2373 130.488 40.492C131.077 39.7293 131.658 39.1053 132.23 38.62C132.819 38.1173 133.435 37.814 134.076 37.71C134.145 37.6753 134.301 37.658 134.544 37.658C134.787 37.658 134.951 37.658 135.038 37.658C135.402 37.6753 135.714 37.7793 135.974 37.97C136.251 38.1433 136.468 38.3773 136.624 38.672C136.763 38.8973 136.789 39.2267 136.702 39.66C136.633 40.076 136.529 40.388 136.39 40.596C136.303 40.7347 136.13 40.9253 135.87 41.168C135.627 41.4107 135.385 41.6273 135.142 41.818C134.899 42.0087 134.743 42.104 134.674 42.104C134.587 42.104 134.457 42.0347 134.284 41.896C134.111 41.7573 134.007 41.662 133.972 41.61C133.903 41.402 133.92 41.2113 134.024 41.038C134.145 40.8473 134.267 40.6653 134.388 40.492C134.561 40.232 134.657 40.0587 134.674 39.972C134.691 39.8853 134.674 39.816 134.622 39.764C134.57 39.6947 134.518 39.5733 134.466 39.4L134.7 39.634C134.579 39.5647 134.475 39.5387 134.388 39.556C134.301 39.5733 134.163 39.6167 133.972 39.686C133.643 39.8593 133.435 39.998 133.348 40.102C133.279 40.1887 133.175 40.3013 133.036 40.44C132.62 40.804 132.317 41.2373 132.126 41.74C131.935 42.2253 131.727 42.6933 131.502 43.144C131.433 43.2827 131.311 43.5427 131.138 43.924C130.982 44.288 130.835 44.6347 130.696 44.964C130.575 45.276 130.462 45.5187 130.358 45.692C130.254 45.848 130.202 45.952 130.202 46.004C130.15 46.1253 130.176 46.186 130.28 46.186C130.401 46.186 130.635 46.1773 130.982 46.16C131.831 46.056 132.421 46.0647 132.75 46.186C133.097 46.29 133.305 46.4807 133.374 46.758C133.669 47.174 133.591 47.4773 133.14 47.668C132.707 47.8413 131.996 47.9973 131.008 48.136C130.731 48.1533 130.514 48.1707 130.358 48.188C130.202 48.188 130.081 48.1967 129.994 48.214C129.925 48.2313 129.855 48.2573 129.786 48.292C129.717 48.3267 129.639 48.5 129.552 48.812C129.535 49.0027 129.5 49.1933 129.448 49.384C129.413 49.5573 129.387 49.7653 129.37 50.008C129.301 50.216 129.249 50.4327 129.214 50.658C129.197 50.8833 129.145 51.0827 129.058 51.256C128.954 52.2093 128.876 53.1107 128.824 53.96C128.772 54.792 128.703 55.5113 128.616 56.118C128.547 56.7247 128.399 57.184 128.174 57.496C128.053 57.6347 127.862 57.7733 127.602 57.912C127.359 58.0507 127.186 58.0767 127.082 57.99ZM138.413 54.48C137.893 54.7747 137.338 54.948 136.749 55C136.177 55.0347 135.64 54.9567 135.137 54.766C134.634 54.558 134.227 54.2547 133.915 53.856C133.742 53.6307 133.577 53.2753 133.421 52.79C133.265 52.2873 133.239 51.6113 133.343 50.762C133.447 49.9647 133.69 49.1587 134.071 48.344C134.47 47.5293 134.955 46.81 135.527 46.186C136.099 45.562 136.723 45.1373 137.399 44.912C137.642 44.8253 137.884 44.7647 138.127 44.73C138.387 44.678 138.725 44.6693 139.141 44.704C139.54 44.756 139.895 44.86 140.207 45.016C140.519 45.1547 140.744 45.3107 140.883 45.484C141.16 45.7613 141.342 46.03 141.429 46.29C141.516 46.55 141.55 46.8013 141.533 47.044C141.446 47.5987 141.195 48.1967 140.779 48.838C140.38 49.4793 139.817 49.956 139.089 50.268C138.794 50.3893 138.448 50.4673 138.049 50.502C137.65 50.5367 137.104 50.4847 136.411 50.346C135.995 50.2593 135.718 50.3027 135.579 50.476C135.458 50.6493 135.406 50.9873 135.423 51.49C135.458 51.802 135.527 52.0793 135.631 52.322C135.752 52.5473 135.969 52.7033 136.281 52.79C136.68 52.8593 136.966 52.868 137.139 52.816C137.312 52.7467 137.529 52.6513 137.789 52.53C137.928 52.4433 138.058 52.348 138.179 52.244C138.318 52.14 138.448 52.036 138.569 51.932C138.708 51.828 138.82 51.75 138.907 51.698C138.994 51.6287 139.08 51.5853 139.167 51.568C139.254 51.5507 139.34 51.542 139.427 51.542C139.618 51.5593 139.8 51.6633 139.973 51.854C140.146 52.0447 140.259 52.2267 140.311 52.4C140.311 52.5387 140.224 52.738 140.051 52.998C139.878 53.2407 139.644 53.5007 139.349 53.778C139.072 54.038 138.76 54.272 138.413 54.48ZM138.075 48.682C138.196 48.63 138.37 48.5087 138.595 48.318C138.838 48.1273 139.054 47.928 139.245 47.72C139.436 47.4947 139.531 47.3213 139.531 47.2C139.531 47.0093 139.401 46.8447 139.141 46.706C138.898 46.5673 138.578 46.5413 138.179 46.628C138.04 46.6627 137.876 46.758 137.685 46.914C137.494 47.07 137.304 47.252 137.113 47.46C136.922 47.6507 136.758 47.8413 136.619 48.032C136.48 48.2053 136.385 48.344 136.333 48.448C136.402 48.5347 136.541 48.604 136.749 48.656C136.957 48.708 137.182 48.734 137.425 48.734C137.685 48.734 137.902 48.7167 138.075 48.682ZM143.899 54.22C143.639 54.22 143.379 54.0293 143.119 53.648C142.859 53.2493 142.651 52.764 142.495 52.192C142.356 51.62 142.304 51.0567 142.339 50.502C142.339 49.9473 142.365 49.5053 142.417 49.176C142.486 48.8293 142.555 48.4913 142.625 48.162C142.677 48.058 142.703 47.9713 142.703 47.902C142.72 47.8327 142.737 47.72 142.755 47.564C142.789 47.408 142.85 47.148 142.937 46.784C143.006 46.4893 143.075 46.2467 143.145 46.056C143.231 45.8653 143.301 45.7353 143.353 45.666C143.561 45.3887 143.795 45.224 144.055 45.172C144.315 45.1027 144.549 45.1287 144.757 45.25C144.982 45.3713 145.112 45.5533 145.147 45.796C145.251 45.8827 145.303 46.082 145.303 46.394C145.32 46.6887 145.303 47.0007 145.251 47.33C145.199 47.642 145.121 47.8673 145.017 48.006C144.982 48.0927 144.939 48.318 144.887 48.682C144.852 49.046 144.809 49.4273 144.757 49.826C144.722 50.2247 144.679 50.5453 144.627 50.788C144.575 51.1 144.592 51.2993 144.679 51.386C144.783 51.4553 144.956 51.3773 145.199 51.152C145.459 50.9093 145.797 50.4847 146.213 49.878C146.559 49.358 146.811 48.9507 146.967 48.656C147.14 48.3613 147.27 48.0927 147.357 47.85C147.461 47.6073 147.573 47.3213 147.695 46.992C147.781 46.7147 147.859 46.4893 147.929 46.316C148.015 46.1427 148.093 46.0213 148.163 45.952C148.353 45.6747 148.605 45.562 148.917 45.614C149.246 45.6487 149.515 45.7353 149.723 45.874C149.931 46.082 150.052 46.368 150.087 46.732C150.139 47.0787 150.061 47.46 149.853 47.876C149.714 48.1533 149.575 48.4827 149.437 48.864C149.315 49.2453 149.211 49.6267 149.125 50.008C149.055 50.3893 149.021 50.7187 149.021 50.996C149.021 51.3427 149.064 51.5507 149.151 51.62C149.255 51.672 149.376 51.698 149.515 51.698C149.723 51.698 149.922 51.6287 150.113 51.49C150.303 51.334 150.581 51.0653 150.945 50.684C151.101 50.528 151.291 50.294 151.517 49.982C151.742 49.67 151.959 49.3407 152.167 48.994C152.392 48.6473 152.574 48.344 152.713 48.084C152.869 47.8067 152.947 47.6333 152.947 47.564C152.947 47.46 153.025 47.3127 153.181 47.122C153.285 46.9833 153.363 46.8793 153.415 46.81C153.484 46.7233 153.605 46.6367 153.779 46.55C153.917 46.4807 154.073 46.472 154.247 46.524C154.42 46.5587 154.567 46.6453 154.689 46.784C154.775 46.8533 154.836 47.0267 154.871 47.304C154.923 47.564 154.949 47.798 154.949 48.006C154.897 48.1967 154.819 48.4653 154.715 48.812C154.611 49.1413 154.498 49.462 154.377 49.774C154.273 50.0687 154.177 50.268 154.091 50.372C154.021 50.4413 153.9 50.5713 153.727 50.762C153.553 50.9353 153.397 51.126 153.259 51.334C152.825 51.854 152.513 52.192 152.323 52.348C152.132 52.504 151.967 52.6513 151.829 52.79C151.465 53.154 151.049 53.4487 150.581 53.674C150.113 53.882 149.671 54.0033 149.255 54.038C148.839 54.0553 148.509 53.9773 148.267 53.804C147.729 53.5267 147.461 53.0587 147.461 52.4C147.461 52.2613 147.435 52.14 147.383 52.036C147.348 51.9147 147.331 51.854 147.331 51.854C147.261 51.854 147.166 51.8713 147.045 51.906C146.941 51.9407 146.828 52.062 146.707 52.27C146.551 52.5647 146.282 52.868 145.901 53.18C145.537 53.4747 145.164 53.726 144.783 53.934C144.401 54.1247 144.107 54.22 143.899 54.22ZM164.251 55.156C163.696 55.156 163.185 55.0347 162.717 54.792C162.266 54.532 161.902 54.22 161.625 53.856C161.348 53.4747 161.209 53.1107 161.209 52.764C161.209 52.608 161.235 52.4953 161.287 52.426C161.356 52.3567 161.452 52.322 161.573 52.322C161.66 52.3393 161.764 52.3827 161.885 52.452C162.006 52.5213 162.128 52.5993 162.249 52.686C162.526 52.8767 162.83 52.998 163.159 53.05C163.488 53.102 163.783 53.0847 164.043 52.998C164.303 52.894 164.45 52.738 164.485 52.53C164.485 52.4607 164.45 52.3133 164.381 52.088C164.312 51.8627 164.225 51.646 164.121 51.438C163.688 50.7967 163.419 50.19 163.315 49.618C163.211 49.0287 163.142 48.4393 163.107 47.85C163.107 47.6073 163.22 47.3387 163.445 47.044C163.67 46.732 163.948 46.4287 164.277 46.134C164.641 45.822 165.04 45.5273 165.473 45.25C165.924 44.9727 166.366 44.7387 166.799 44.548C167.232 44.3573 167.596 44.2447 167.891 44.21C168.203 44.21 168.532 44.2273 168.879 44.262C169.243 44.2793 169.486 44.34 169.607 44.444C169.85 44.6347 170.075 44.9467 170.283 45.38C170.491 45.8133 170.595 46.1773 170.595 46.472C170.595 46.6107 170.517 46.784 170.361 46.992C170.222 47.1827 170.092 47.3993 169.971 47.642C169.902 47.7633 169.841 47.8933 169.789 48.032C169.737 48.1707 169.676 48.3093 169.607 48.448C169.503 48.6907 169.312 48.7947 169.035 48.76C168.775 48.708 168.532 48.5693 168.307 48.344C168.082 48.1013 167.969 47.824 167.969 47.512C167.969 47.252 168.047 47.0267 168.203 46.836C168.359 46.6453 168.437 46.5153 168.437 46.446C168.437 46.4113 168.42 46.3853 168.385 46.368C168.35 46.3507 168.29 46.342 168.203 46.342C168.082 46.342 167.882 46.394 167.605 46.498C167.345 46.5847 167.068 46.7147 166.773 46.888C166.478 47.0613 166.21 47.2693 165.967 47.512C165.794 47.7027 165.646 47.9107 165.525 48.136C165.421 48.344 165.369 48.5693 165.369 48.812C165.369 49.0547 165.412 49.3407 165.499 49.67C165.603 49.982 165.716 50.242 165.837 50.45C165.872 50.4847 165.924 50.58 165.993 50.736C166.08 50.8747 166.175 51.048 166.279 51.256C166.92 52.5733 167.024 53.5527 166.591 54.194C166.175 54.8353 165.395 55.156 164.251 55.156ZM173.315 56.56C172.466 56.5427 171.92 56.3 171.677 55.832C171.452 55.3813 171.391 54.8093 171.495 54.116C171.599 53.7867 171.66 53.492 171.677 53.232C171.712 52.9547 171.79 52.7813 171.911 52.712C171.911 52.712 171.92 52.686 171.937 52.634C171.972 52.582 171.963 52.53 171.911 52.478C171.911 52.2527 171.989 51.9407 172.145 51.542C172.18 51.438 172.223 51.3167 172.275 51.178C172.344 51.022 172.379 50.944 172.379 50.944C172.292 50.8053 172.292 50.6927 172.379 50.606C172.466 50.5193 172.552 50.4413 172.639 50.372C172.743 50.2853 172.752 50.19 172.665 50.086C172.63 50.0167 172.674 49.8607 172.795 49.618C172.916 49.358 173.055 49.0893 173.211 48.812C173.367 48.5347 173.471 48.318 173.523 48.162C173.523 48.1273 173.566 48.006 173.653 47.798C173.74 47.59 173.844 47.3473 173.965 47.07C174.086 46.7927 174.199 46.5413 174.303 46.316C174.424 46.0907 174.502 45.9433 174.537 45.874C174.71 45.7873 174.641 45.7267 174.329 45.692C174.017 45.6573 173.688 45.6487 173.341 45.666C172.804 45.6487 172.37 45.6227 172.041 45.588C171.729 45.5533 171.469 45.4753 171.261 45.354C171.053 45.1113 171.027 44.8253 171.183 44.496C171.339 44.1493 171.59 43.9673 171.937 43.95C172.162 43.9327 172.336 43.924 172.457 43.924C172.596 43.924 172.769 43.9153 172.977 43.898C173.202 43.8633 173.549 43.82 174.017 43.768L175.343 43.664L175.421 43.222C175.56 42.9967 175.655 42.8493 175.707 42.78C175.759 42.7107 175.794 42.6413 175.811 42.572C175.828 42.4853 175.854 42.338 175.889 42.13C175.889 42.13 175.967 41.9913 176.123 41.714C176.279 41.4193 176.374 41.116 176.409 40.804C176.617 40.4573 176.799 40.1453 176.955 39.868C177.111 39.5733 177.206 39.3913 177.241 39.322C177.536 38.8887 177.822 38.6547 178.099 38.62C178.394 38.5853 178.671 38.6547 178.931 38.828C179.087 38.9147 179.234 39.0273 179.373 39.166C179.512 39.2873 179.598 39.452 179.633 39.66C179.668 39.8507 179.59 40.102 179.399 40.414C179.364 40.4833 179.312 40.6133 179.243 40.804C179.174 40.9773 179.122 41.1247 179.087 41.246C178.983 41.3673 178.853 41.5667 178.697 41.844C178.558 42.104 178.463 42.3727 178.411 42.65C178.272 42.9447 178.186 43.1267 178.151 43.196C178.116 43.2653 178.064 43.3 177.995 43.3C178.03 43.4733 178.134 43.56 178.307 43.56C178.48 43.5427 178.766 43.5253 179.165 43.508C179.494 43.4733 179.72 43.4387 179.841 43.404C179.98 43.352 180.136 43.3693 180.309 43.456C180.396 43.5773 180.439 43.7593 180.439 44.002C180.456 44.2273 180.43 44.4527 180.361 44.678C180.292 44.886 180.196 45.016 180.075 45.068C179.988 45.068 179.806 45.12 179.529 45.224C179.269 45.3107 178.94 45.3627 178.541 45.38L177.163 45.51L176.721 46.394C176.6 46.6193 176.496 46.8273 176.409 47.018C176.322 47.1913 176.262 47.2953 176.227 47.33C176.227 47.434 176.166 47.59 176.045 47.798C175.941 48.006 175.828 48.2313 175.707 48.474C175.603 48.7687 175.482 49.0373 175.343 49.28C175.222 49.5227 175.161 49.644 175.161 49.644C175.092 49.644 175.057 49.696 175.057 49.8C175.144 50.008 175.118 50.164 174.979 50.268C174.892 50.32 174.814 50.398 174.745 50.502C174.693 50.5887 174.667 50.632 174.667 50.632C174.736 50.7013 174.745 50.788 174.693 50.892C174.658 50.996 174.606 51.1087 174.537 51.23C174.537 51.3687 174.494 51.568 174.407 51.828C174.338 52.088 174.26 52.3307 174.173 52.556C174.19 52.868 174.208 53.0673 174.225 53.154C174.242 53.2407 174.286 53.2753 174.355 53.258C174.442 53.2753 174.563 53.2753 174.719 53.258C174.875 53.2407 174.988 53.232 175.057 53.232C175.317 53.1107 175.196 53.7173 174.693 55.052C174.416 55.4853 174.138 55.8407 173.861 56.118C173.584 56.4127 173.402 56.56 173.315 56.56ZM182.13 55.468C181.177 55.468 180.44 55.1907 179.92 54.636C179.418 54.0813 179.166 53.232 179.166 52.088C179.166 51.464 179.279 50.7793 179.504 50.034C179.747 49.2887 180.059 48.5607 180.44 47.85C180.839 47.1393 181.272 46.524 181.74 46.004C182.208 45.4667 182.676 45.094 183.144 44.886C183.318 44.7993 183.5 44.7387 183.69 44.704C183.898 44.652 184.098 44.626 184.288 44.626C184.496 44.626 184.722 44.6433 184.964 44.678C185.224 44.6953 185.467 44.7473 185.692 44.834C186.091 44.9553 186.438 45.1893 186.732 45.536C187.044 45.8827 187.2 46.3853 187.2 47.044C187.2 47.2173 187.183 47.408 187.148 47.616C187.114 47.8067 187.053 47.9973 186.966 48.188C186.741 48.76 186.394 49.306 185.926 49.826C185.476 50.346 184.999 50.71 184.496 50.918C184.358 50.9873 184.219 51.0393 184.08 51.074C183.959 51.0913 183.829 51.1 183.69 51.1C183.326 51.1 182.997 51.048 182.702 50.944C182.425 50.84 182.165 50.7013 181.922 50.528L181.714 50.346L181.584 50.606C181.463 50.9353 181.376 51.2127 181.324 51.438C181.29 51.6633 181.272 51.828 181.272 51.932C181.272 52.14 181.281 52.3567 181.298 52.582C181.316 52.79 181.368 52.9633 181.454 53.102C181.524 53.1887 181.61 53.258 181.714 53.31C181.836 53.362 181.983 53.388 182.156 53.388C182.26 53.388 182.356 53.388 182.442 53.388C182.546 53.3707 182.633 53.3533 182.702 53.336C183.014 53.2667 183.266 53.154 183.456 52.998C183.664 52.8247 183.881 52.6773 184.106 52.556L184.21 52.504L184.184 52.426C184.479 52.27 184.678 52.1747 184.782 52.14C184.886 52.088 184.964 52.0447 185.016 52.01C185.086 51.9407 185.164 51.906 185.25 51.906C185.493 51.8713 185.727 51.9407 185.952 52.114C186.195 52.27 186.316 52.4693 186.316 52.712C186.316 52.816 186.238 52.9807 186.082 53.206C185.944 53.4313 185.762 53.6567 185.536 53.882C185.328 54.09 185.112 54.2547 184.886 54.376C184.834 54.3933 184.782 54.4193 184.73 54.454C184.678 54.4713 184.626 54.4973 184.574 54.532H184.6C184.444 54.74 184.288 54.844 184.132 54.844H183.924C183.855 54.9653 183.63 55.0953 183.248 55.234C182.867 55.39 182.494 55.468 182.13 55.468ZM183.482 49.202C183.638 49.202 183.777 49.176 183.898 49.124C184.037 49.072 184.167 49.0113 184.288 48.942C184.704 48.6473 184.973 48.266 185.094 47.798C185.216 47.33 185.172 46.9747 184.964 46.732C184.93 46.68 184.886 46.6453 184.834 46.628C184.782 46.5933 184.722 46.576 184.652 46.576C184.462 46.576 184.245 46.6367 184.002 46.758C183.777 46.8793 183.552 47.0527 183.326 47.278C183.101 47.5033 182.893 47.772 182.702 48.084L182.364 48.63C182.399 48.6127 182.425 48.604 182.442 48.604C182.477 48.5867 182.503 48.578 182.52 48.578C182.676 48.578 182.78 48.63 182.832 48.734C182.884 48.838 182.945 48.942 183.014 49.046C183.101 49.15 183.257 49.202 183.482 49.202ZM187.174 61.058C187.105 61.058 187.001 61.058 186.862 61.058C186.741 61.0753 186.637 61.006 186.55 60.85C186.481 60.7633 186.377 60.59 186.238 60.33C186.099 60.0873 186.073 59.7407 186.16 59.29C186.247 58.9953 186.316 58.7007 186.368 58.406C186.42 58.1287 186.446 57.9207 186.446 57.782C186.446 57.7127 186.463 57.574 186.498 57.366C186.55 57.1753 186.576 57.0367 186.576 56.95C186.663 56.8113 186.732 56.6207 186.784 56.378C186.836 56.1353 186.862 55.9187 186.862 55.728C186.862 55.52 186.966 55.3293 187.174 55.156C187.174 55.0173 187.2 54.844 187.252 54.636C187.321 54.428 187.356 54.2893 187.356 54.22C187.408 53.9773 187.521 53.5527 187.694 52.946C187.885 52.322 188.11 51.62 188.37 50.84C188.647 50.06 188.916 49.2973 189.176 48.552C189.436 47.8067 189.67 47.174 189.878 46.654C190.086 46.1687 190.259 45.718 190.398 45.302C190.537 44.886 190.606 44.5913 190.606 44.418C190.606 44.3487 190.623 44.2967 190.658 44.262C190.693 44.21 190.771 44.1147 190.892 43.976C191.065 43.8027 191.291 43.742 191.568 43.794C191.863 43.8287 192.105 43.9153 192.296 44.054C192.435 44.2793 192.53 44.4873 192.582 44.678C192.651 44.8513 192.651 45.1287 192.582 45.51C192.582 45.77 192.521 46.0127 192.4 46.238C192.279 46.446 192.166 46.6193 192.062 46.758C191.975 46.8793 191.949 46.9313 191.984 46.914C192.747 46.446 193.431 46.1947 194.038 46.16C194.662 46.108 195.182 46.212 195.598 46.472C196.031 46.7147 196.361 47.0527 196.586 47.486C196.811 47.9193 196.924 48.3873 196.924 48.89C196.924 49.098 196.855 49.3753 196.716 49.722C196.577 50.0687 196.421 50.398 196.248 50.71C196.075 51.0047 195.936 51.204 195.832 51.308C195.763 51.308 195.693 51.3687 195.624 51.49C195.555 51.594 195.485 51.7153 195.416 51.854C195.277 52.0273 195.043 52.2267 194.714 52.452C194.402 52.66 194.081 52.8333 193.752 52.972C193.423 53.0933 193.189 53.128 193.05 53.076C193.05 53.076 193.024 53.0933 192.972 53.128C192.937 53.1627 192.92 53.2233 192.92 53.31C192.92 53.3447 192.799 53.414 192.556 53.518C192.313 53.622 192.027 53.7173 191.698 53.804C191.369 53.8907 191.065 53.934 190.788 53.934C190.424 53.934 190.164 53.8647 190.008 53.726C189.973 53.7607 189.93 53.8127 189.878 53.882C189.843 53.9513 189.826 54.012 189.826 54.064C189.826 54.168 189.783 54.3327 189.696 54.558C189.627 54.7833 189.54 54.9827 189.436 55.156C189.332 55.3467 189.237 55.442 189.15 55.442C189.15 55.442 189.133 55.468 189.098 55.52C189.063 55.572 189.081 55.6413 189.15 55.728C189.15 55.728 189.141 55.8233 189.124 56.014C189.124 56.222 189.081 56.3953 188.994 56.534C188.994 56.6727 188.968 56.8807 188.916 57.158C188.864 57.4353 188.803 57.6433 188.734 57.782C188.734 57.99 188.699 58.1893 188.63 58.38C188.578 58.588 188.517 58.692 188.448 58.692C188.379 58.7093 188.335 58.8133 188.318 59.004C188.301 59.212 188.292 59.3593 188.292 59.446C188.275 59.8793 188.136 60.252 187.876 60.564C187.616 60.8933 187.382 61.058 187.174 61.058ZM190.502 51.958C190.641 51.958 190.892 51.8973 191.256 51.776C191.62 51.6547 192.001 51.5073 192.4 51.334C192.799 51.1433 193.111 50.9527 193.336 50.762C193.787 50.3633 194.133 49.9733 194.376 49.592C194.636 49.2107 194.619 48.786 194.324 48.318C194.185 48.0753 193.96 47.98 193.648 48.032C193.353 48.0667 193.024 48.2053 192.66 48.448C192.296 48.6907 191.923 48.994 191.542 49.358C191.334 49.5833 191.143 49.8433 190.97 50.138C190.797 50.4327 190.649 50.7187 190.528 50.996C190.424 51.2733 190.363 51.5073 190.346 51.698C190.329 51.8713 190.381 51.958 190.502 51.958ZM200.458 55.156C199.903 55.156 199.392 55.0347 198.924 54.792C198.473 54.532 198.109 54.22 197.832 53.856C197.555 53.4747 197.416 53.1107 197.416 52.764C197.416 52.608 197.442 52.4953 197.494 52.426C197.563 52.3567 197.659 52.322 197.78 52.322C197.867 52.3393 197.971 52.3827 198.092 52.452C198.213 52.5213 198.335 52.5993 198.456 52.686C198.733 52.8767 199.037 52.998 199.366 53.05C199.695 53.102 199.99 53.0847 200.25 52.998C200.51 52.894 200.657 52.738 200.692 52.53C200.692 52.4607 200.657 52.3133 200.588 52.088C200.519 51.8627 200.432 51.646 200.328 51.438C199.895 50.7967 199.626 50.19 199.522 49.618C199.418 49.0287 199.349 48.4393 199.314 47.85C199.314 47.6073 199.427 47.3387 199.652 47.044C199.877 46.732 200.155 46.4287 200.484 46.134C200.848 45.822 201.247 45.5273 201.68 45.25C202.131 44.9727 202.573 44.7387 203.006 44.548C203.439 44.3573 203.803 44.2447 204.098 44.21C204.41 44.21 204.739 44.2273 205.086 44.262C205.45 44.2793 205.693 44.34 205.814 44.444C206.057 44.6347 206.282 44.9467 206.49 45.38C206.698 45.8133 206.802 46.1773 206.802 46.472C206.802 46.6107 206.724 46.784 206.568 46.992C206.429 47.1827 206.299 47.3993 206.178 47.642C206.109 47.7633 206.048 47.8933 205.996 48.032C205.944 48.1707 205.883 48.3093 205.814 48.448C205.71 48.6907 205.519 48.7947 205.242 48.76C204.982 48.708 204.739 48.5693 204.514 48.344C204.289 48.1013 204.176 47.824 204.176 47.512C204.176 47.252 204.254 47.0267 204.41 46.836C204.566 46.6453 204.644 46.5153 204.644 46.446C204.644 46.4113 204.627 46.3853 204.592 46.368C204.557 46.3507 204.497 46.342 204.41 46.342C204.289 46.342 204.089 46.394 203.812 46.498C203.552 46.5847 203.275 46.7147 202.98 46.888C202.685 47.0613 202.417 47.2693 202.174 47.512C202.001 47.7027 201.853 47.9107 201.732 48.136C201.628 48.344 201.576 48.5693 201.576 48.812C201.576 49.0547 201.619 49.3407 201.706 49.67C201.81 49.982 201.923 50.242 202.044 50.45C202.079 50.4847 202.131 50.58 202.2 50.736C202.287 50.8747 202.382 51.048 202.486 51.256C203.127 52.5733 203.231 53.5527 202.798 54.194C202.382 54.8353 201.602 55.156 200.458 55.156Z" fill="#292929"/>
</svg>
