<svg width="16" height="16" viewBox="0 0 16 16" fill="none" xmlns="http://www.w3.org/2000/svg">
<path d="M8.85403 8.35378L3.85403 13.3538C3.76021 13.4476 3.63296 13.5003 3.50028 13.5003C3.3676 13.5003 3.24035 13.4476 3.14653 13.3538C3.05271 13.26 3 13.1327 3 13C3 12.8674 3.05271 12.7401 3.14653 12.6463L7.7934 8.00003L3.14653 3.35378C3.05271 3.25996 3 3.13272 3 3.00003C3 2.86735 3.05271 2.7401 3.14653 2.64628C3.24035 2.55246 3.3676 2.49976 3.50028 2.49976C3.63296 2.49976 3.76021 2.55246 3.85403 2.64628L8.85403 7.64628C8.90052 7.69272 8.9374 7.74786 8.96256 7.80856C8.98772 7.86926 9.00067 7.93433 9.00067 8.00003C9.00067 8.06574 8.98772 8.13081 8.96256 8.1915C8.9374 8.2522 8.90052 8.30735 8.85403 8.35378ZM13.854 7.64628L8.85403 2.64628C8.76021 2.55246 8.63296 2.49976 8.50028 2.49976C8.3676 2.49976 8.24035 2.55246 8.14653 2.64628C8.05271 2.7401 8 2.86735 8 3.00003C8 3.13272 8.05271 3.25996 8.14653 3.35378L12.7934 8.00003L8.14653 12.6463C8.05271 12.7401 8 12.8674 8 13C8 13.1327 8.05271 13.26 8.14653 13.3538C8.24035 13.4476 8.3676 13.5003 8.50028 13.5003C8.63296 13.5003 8.76021 13.4476 8.85403 13.3538L13.854 8.35378C13.9005 8.30735 13.9374 8.2522 13.9626 8.1915C13.9877 8.13081 14.0007 8.06574 14.0007 8.00003C14.0007 7.93433 13.9877 7.86926 13.9626 7.80856C13.9374 7.74786 13.9005 7.69272 13.854 7.64628Z" fill="#BDBDBD"/>
</svg>
