<svg width="61" height="60" viewBox="0 0 61 60" fill="none" xmlns="http://www.w3.org/2000/svg">
<g clip-path="url(#clip0_20057_6704)">
<path d="M52.3182 0H8.68182C4.16312 0 0.5 3.66312 0.5 8.18182V51.8182C0.5 56.3369 4.16312 60 8.68182 60H52.3182C56.8369 60 60.5 56.3369 60.5 51.8182V8.18182C60.5 3.66312 56.8369 0 52.3182 0Z" fill="#0077B5"/>
<path d="M22.114 16.3636C22.114 17.375 21.8141 18.3637 21.2522 19.2046C20.6903 20.0456 19.8917 20.701 18.9573 21.088C18.0229 21.4751 16.9947 21.5763 16.0027 21.379C15.0108 21.1817 14.0996 20.6947 13.3845 19.9795C12.6693 19.2644 12.1823 18.3532 11.985 17.3613C11.7877 16.3693 11.8889 15.3411 12.276 14.4067C12.663 13.4723 13.3184 12.6737 14.1594 12.1118C15.0003 11.5499 15.989 11.25 17.0004 11.25C18.3566 11.25 19.6573 11.7888 20.6162 12.7477C21.5752 13.7067 22.114 15.0074 22.114 16.3636ZM20.9549 24.8864V47.4784C20.9558 47.6451 20.9238 47.8103 20.8606 47.9645C20.7974 48.1187 20.7044 48.259 20.5869 48.3772C20.4693 48.4953 20.3296 48.5891 20.1757 48.6531C20.0218 48.7171 19.8568 48.75 19.6901 48.75H14.3004C14.1337 48.7505 13.9686 48.718 13.8145 48.6544C13.6604 48.5908 13.5205 48.4974 13.4026 48.3796C13.2848 48.2617 13.1914 48.1217 13.1278 47.9677C13.0642 47.8136 13.0317 47.6485 13.0322 47.4818V24.8864C13.0322 24.55 13.1658 24.2275 13.4036 23.9896C13.6414 23.7518 13.964 23.6182 14.3004 23.6182H19.6901C20.0259 23.6191 20.3476 23.7531 20.5847 23.9908C20.8218 24.2286 20.9549 24.5506 20.9549 24.8864ZM49.1276 36.6477V47.5841C49.1281 47.7373 49.0982 47.8891 49.0398 48.0308C48.9814 48.1725 48.8955 48.3012 48.7872 48.4095C48.6788 48.5179 48.5501 48.6037 48.4084 48.6622C48.2668 48.7206 48.115 48.7505 47.9617 48.75H42.1663C42.013 48.7505 41.8612 48.7206 41.7196 48.6622C41.5779 48.6037 41.4492 48.5179 41.3408 48.4095C41.2325 48.3012 41.1466 48.1725 41.0882 48.0308C41.0298 47.8891 40.9999 47.7373 41.0004 47.5841V36.9852C41.0004 35.4034 41.464 30.058 36.8651 30.058C33.3026 30.058 32.5765 33.7159 32.4333 35.3591V47.5841C32.4333 47.8904 32.3129 48.1844 32.0979 48.4025C31.8829 48.6207 31.5907 48.7455 31.2845 48.75H25.6867C25.5338 48.75 25.3823 48.7198 25.2411 48.6612C25.0998 48.6026 24.9715 48.5166 24.8635 48.4083C24.7555 48.3 24.67 48.1714 24.6117 48.03C24.5535 47.8886 24.5238 47.737 24.5242 47.5841V24.7875C24.5238 24.6346 24.5535 24.483 24.6117 24.3416C24.67 24.2001 24.7555 24.0716 24.8635 23.9633C24.9715 23.855 25.0998 23.769 25.2411 23.7104C25.3823 23.6518 25.5338 23.6216 25.6867 23.6216H31.2845C31.5937 23.6216 31.8902 23.7444 32.1089 23.9631C32.3275 24.1817 32.4504 24.4783 32.4504 24.7875V26.758C33.7731 24.7739 35.7333 23.2432 39.9163 23.2432C49.1822 23.2432 49.1276 31.8955 49.1276 36.6477Z" fill="white"/>
</g>
<defs>
<clipPath id="clip0_20057_6704">
<rect width="60" height="60" fill="white" transform="translate(0.5)"/>
</clipPath>
</defs>
</svg>
