<svg width="20" height="20" viewBox="0 0 20 20" fill="none" xmlns="http://www.w3.org/2000/svg">
<path d="M17.9419 17.0577L14.0302 13.1468C15.1639 11.7856 15.7293 10.0398 15.6086 8.27238C15.488 6.50499 14.6906 4.85217 13.3823 3.65772C12.074 2.46328 10.3557 1.8192 8.58462 1.85944C6.81357 1.89969 5.12622 2.62118 3.87358 3.87383C2.62094 5.12647 1.89945 6.81382 1.8592 8.58486C1.81895 10.3559 2.46304 12.0743 3.65748 13.3825C4.85192 14.6908 6.50475 15.4882 8.27214 15.6089C10.0395 15.7295 11.7854 15.1642 13.1466 14.0304L17.0575 17.9421C17.1156 18.0002 17.1845 18.0463 17.2604 18.0777C17.3363 18.1091 17.4176 18.1253 17.4997 18.1253C17.5818 18.1253 17.6631 18.1091 17.739 18.0777C17.8149 18.0463 17.8838 18.0002 17.9419 17.9421C17.9999 17.8841 18.046 17.8151 18.0774 17.7392C18.1089 17.6634 18.125 17.5821 18.125 17.4999C18.125 17.4178 18.1089 17.3365 18.0774 17.2606C18.046 17.1848 17.9999 17.1158 17.9419 17.0577ZM3.12469 8.74993C3.12469 7.63741 3.45459 6.54988 4.07267 5.62485C4.69076 4.69982 5.56926 3.97885 6.5971 3.55311C7.62493 3.12737 8.75593 3.01598 9.84707 3.23302C10.9382 3.45006 11.9405 3.98579 12.7272 4.77246C13.5138 5.55913 14.0496 6.56141 14.2666 7.65255C14.4837 8.74369 14.3723 9.87469 13.9465 10.9025C13.5208 11.9304 12.7998 12.8089 11.8748 13.427C10.9497 14.045 9.86221 14.3749 8.74969 14.3749C7.25836 14.3733 5.82858 13.7801 4.77404 12.7256C3.71951 11.6711 3.12634 10.2413 3.12469 8.74993Z" fill="#BDBDBD"/>
</svg>
