<svg width="56" height="56" viewBox="0 0 56 56" fill="none" xmlns="http://www.w3.org/2000/svg">
<rect width="56" height="56" rx="28" fill="#F1F6FC"/>
<path d="M34.8807 27.0307C34.811 27.1005 34.7283 27.1558 34.6372 27.1935C34.5462 27.2313 34.4486 27.2507 34.35 27.2507C34.2515 27.2507 34.1539 27.2313 34.0628 27.1935C33.9718 27.1558 33.8891 27.1005 33.8194 27.0307L28.35 21.5604V36.2501C28.35 36.449 28.271 36.6398 28.1304 36.7804C27.9897 36.9211 27.7989 37.0001 27.6 37.0001C27.4011 37.0001 27.2103 36.9211 27.0697 36.7804C26.929 36.6398 26.85 36.449 26.85 36.2501V21.5604L21.3807 27.0307C21.2399 27.1715 21.049 27.2505 20.85 27.2505C20.651 27.2505 20.4601 27.1715 20.3194 27.0307C20.1787 26.89 20.0996 26.6991 20.0996 26.5001C20.0996 26.3011 20.1787 26.1102 20.3194 25.9695L27.0694 19.2195C27.1391 19.1497 27.2218 19.0944 27.3128 19.0567C27.4039 19.0189 27.5015 18.9995 27.6 18.9995C27.6986 18.9995 27.7962 19.0189 27.8872 19.0567C27.9783 19.0944 28.061 19.1497 28.1307 19.2195L34.8807 25.9695C34.9504 26.0391 35.0057 26.1218 35.0434 26.2129C35.0812 26.3039 35.1006 26.4015 35.1006 26.5001C35.1006 26.5987 35.0812 26.6963 35.0434 26.7873C35.0057 26.8784 34.9504 26.9611 34.8807 27.0307Z" fill="#006EFF"/>
</svg>
