<svg width="52" height="53" viewBox="0 0 52 53" fill="none" xmlns="http://www.w3.org/2000/svg">
<rect y="0.5" width="52" height="52" rx="26" fill="#004BDE"/>
<path d="M39.3098 21.7849C39.6194 21.53 39.6994 21.0887 39.4989 20.7414L37.4381 17.1722C37.2376 16.8249 36.8154 16.6736 36.4399 16.8142L35.7383 17.0771L38.7313 22.2611L39.3098 21.7849Z" fill="#EFEFEF"/>
<path d="M28.0541 32.0266C26.5817 32.4881 25.0991 33.0867 23.7513 33.8644L23.0381 34.2761L26.0946 39.5702C26.2465 39.8334 26.5222 39.9805 26.8057 39.9804C26.9449 39.9804 27.0859 39.945 27.2151 39.8704L30.5304 37.9563C30.7188 37.8475 30.8563 37.6684 30.9126 37.4582C30.9689 37.2481 30.9394 37.0242 30.8306 36.8358L28.0541 32.0266Z" fill="#EFEFEF"/>
<path d="M15.5022 27.6997C15.0594 27.9554 14.7427 28.3681 14.6104 28.862C14.553 29.076 14.5334 29.2942 14.5503 29.5088L12.4161 30.7171C12.2258 30.8249 12.0864 31.0042 12.0289 31.2153C11.9713 31.4263 12.0006 31.6516 12.1099 31.8411L14.0417 35.187C14.1935 35.45 14.4692 35.5973 14.7528 35.5973C14.8898 35.5973 15.0286 35.5629 15.1563 35.4907L17.2528 34.3037C17.5958 34.5806 18.0237 34.7304 18.4598 34.7304C18.7843 34.7304 19.1129 34.648 19.4135 34.4744L21.5072 33.2657L17.5957 26.4912L15.5022 27.6997Z" fill="#EFEFEF"/>
<path d="M39.8901 27.5493L31.7379 13.4296C31.5917 13.1764 31.3219 13.0202 31.0295 13.0195C31.0288 13.0195 31.0282 13.0195 31.0275 13.0195C30.7359 13.0195 30.4662 13.1744 30.3191 13.4262C30.2687 13.5125 25.2065 22.0973 19.0166 25.6709L22.9281 32.4453C26.3816 30.4515 30.5976 29.5608 33.5262 29.1646C36.7211 28.7325 39.1234 28.7788 39.1609 28.7796C39.4565 28.7866 39.7342 28.6328 39.8854 28.3778C40.0365 28.1227 40.0383 27.806 39.8901 27.5493Z" fill="#EFEFEF"/>
</svg>
