<svg width="28" height="28" viewBox="0 0 28 28" fill="none" xmlns="http://www.w3.org/2000/svg">
<g clip-path="url(#clip0_7_25144)">
<path d="M14 0C6.26828 0 0 6.26828 0 14C0 21.7317 6.26828 28 14 28C21.7317 28 28 21.7317 28 14C28 6.26828 21.7317 0 14 0Z" fill="black"/>
<path d="M15.5316 12.7332L21.5248 5.7666H20.1046L14.9006 11.8157L10.7443 5.7666H5.95044L12.2357 14.9138L5.95044 22.2194H7.37073L12.8662 15.8314L17.2556 22.2194H22.0495L15.5312 12.7332H15.5316ZM7.88246 6.83578H10.0639L20.1052 21.1989H17.9238L7.88246 6.83578Z" fill="white"/>
</g>
<defs>
<clipPath id="clip0_7_25144">
<rect width="28" height="28" fill="white"/>
</clipPath>
</defs>
</svg>
