<svg width="61" height="60" viewBox="0 0 61 60" fill="none" xmlns="http://www.w3.org/2000/svg">
<g clip-path="url(#clip0_20057_6724)">
<path d="M60.5 11.3963C58.2687 12.375 55.8913 13.0237 53.4125 13.3387C55.9625 11.8162 57.9088 9.42375 58.8238 6.54C56.4463 7.9575 53.8212 8.95875 51.0238 9.5175C48.7662 7.11375 45.5487 5.625 42.0387 5.625C35.2287 5.625 29.7463 11.1525 29.7463 17.9288C29.7463 18.9038 29.8288 19.8412 30.0312 20.7337C19.805 20.235 10.7563 15.3338 4.6775 7.8675C3.61625 9.70875 2.99375 11.8162 2.99375 14.085C2.99375 18.345 5.1875 22.1213 8.4575 24.3075C6.48125 24.27 4.5425 23.6963 2.9 22.7925V22.9275C2.9 28.905 7.16375 33.87 12.755 35.0138C11.7537 35.2875 10.6625 35.4187 9.53 35.4187C8.7425 35.4187 7.9475 35.3738 7.20125 35.2087C8.795 40.08 13.3175 43.6613 18.695 43.7775C14.51 47.0513 9.19625 49.0238 3.44375 49.0238C2.435 49.0238 1.4675 48.9787 0.5 48.855C5.94875 52.3687 12.4062 54.375 19.37 54.375C42.005 54.375 54.38 35.625 54.38 19.3725C54.38 18.8287 54.3612 18.3038 54.335 17.7825C56.7762 16.05 58.8275 13.8863 60.5 11.3963Z" fill="#03A9F4"/>
</g>
<defs>
<clipPath id="clip0_20057_6724">
<rect width="60" height="60" fill="white" transform="translate(0.5)"/>
</clipPath>
</defs>
</svg>
