<svg width="28" height="28" viewBox="0 0 28 28" fill="none" xmlns="http://www.w3.org/2000/svg">
<g clip-path="url(#clip0_7_25091)">
<path d="M14 0C6.26828 0 0 6.26828 0 14C0 21.7317 6.26828 28 14 28C21.7317 28 28 21.7317 28 14C28 6.26828 21.7317 0 14 0Z" fill="white"/>
<path d="M15.5316 12.7332L21.5248 5.7666H20.1046L14.9007 11.8157L10.7444 5.7666H5.9505L12.2357 14.9138L5.9505 22.2194H7.37079L12.8663 15.8314L17.2557 22.2194H22.0495L15.5312 12.7332H15.5316ZM7.88252 6.83578H10.064L20.1053 21.1989H17.9238L7.88252 6.83578Z" fill="black"/>
</g>
<defs>
<clipPath id="clip0_7_25091">
<rect width="28" height="28" fill="white"/>
</clipPath>
</defs>
</svg>
