<svg width="48" height="48" viewBox="0 0 48 48" fill="none" xmlns="http://www.w3.org/2000/svg">
<rect width="48" height="48" rx="8" fill="#D9E7FF"/>
<path d="M34.4999 17.25V23.25C34.4999 23.4489 34.4209 23.6397 34.2803 23.7803C34.1396 23.921 33.9488 24 33.7499 24C33.551 24 33.3603 23.921 33.2196 23.7803C33.0789 23.6397 32.9999 23.4489 32.9999 23.25V19.0603L25.2806 26.7806C25.2109 26.8504 25.1282 26.9057 25.0371 26.9434C24.9461 26.9812 24.8485 27.0006 24.7499 27.0006C24.6514 27.0006 24.5538 26.9812 24.4627 26.9434C24.3717 26.9057 24.289 26.8504 24.2193 26.7806L20.9999 23.5603L14.7806 29.7806C14.6398 29.9214 14.449 30.0004 14.2499 30.0004C14.0509 30.0004 13.86 29.9214 13.7193 29.7806C13.5786 29.6399 13.4995 29.449 13.4995 29.25C13.4995 29.051 13.5786 28.8601 13.7193 28.7194L20.4693 21.9694C20.539 21.8996 20.6217 21.8443 20.7127 21.8066C20.8038 21.7688 20.9014 21.7494 20.9999 21.7494C21.0985 21.7494 21.1961 21.7688 21.2871 21.8066C21.3782 21.8443 21.4609 21.8996 21.5306 21.9694L24.7499 25.1897L31.9396 18H27.7499C27.551 18 27.3603 17.921 27.2196 17.7803C27.0789 17.6397 26.9999 17.4489 26.9999 17.25C26.9999 17.0511 27.0789 16.8603 27.2196 16.7197C27.3603 16.579 27.551 16.5 27.7499 16.5H33.7499C33.9488 16.5 34.1396 16.579 34.2803 16.7197C34.4209 16.8603 34.4999 17.0511 34.4999 17.25Z" fill="#004BDE"/>
</svg>
