<svg width="48" height="48" viewBox="0 0 48 48" fill="none" xmlns="http://www.w3.org/2000/svg">
<rect width="48" height="48" rx="8" fill="#D9E7FF"/>
<path d="M31.5 15H29.25V14.25C29.25 14.0511 29.171 13.8603 29.0303 13.7197C28.8897 13.579 28.6989 13.5 28.5 13.5C28.3011 13.5 28.1103 13.579 27.9697 13.7197C27.829 13.8603 27.75 14.0511 27.75 14.25V15H20.25V14.25C20.25 14.0511 20.171 13.8603 20.0303 13.7197C19.8897 13.579 19.6989 13.5 19.5 13.5C19.3011 13.5 19.1103 13.579 18.9697 13.7197C18.829 13.8603 18.75 14.0511 18.75 14.25V15H16.5C16.1022 15 15.7206 15.158 15.4393 15.4393C15.158 15.7206 15 16.1022 15 16.5V31.5C15 31.8978 15.158 32.2794 15.4393 32.5607C15.7206 32.842 16.1022 33 16.5 33H31.5C31.8978 33 32.2794 32.842 32.5607 32.5607C32.842 32.2794 33 31.8978 33 31.5V16.5C33 16.1022 32.842 15.7206 32.5607 15.4393C32.2794 15.158 31.8978 15 31.5 15ZM18.75 16.5V17.25C18.75 17.4489 18.829 17.6397 18.9697 17.7803C19.1103 17.921 19.3011 18 19.5 18C19.6989 18 19.8897 17.921 20.0303 17.7803C20.171 17.6397 20.25 17.4489 20.25 17.25V16.5H27.75V17.25C27.75 17.4489 27.829 17.6397 27.9697 17.7803C28.1103 17.921 28.3011 18 28.5 18C28.6989 18 28.8897 17.921 29.0303 17.7803C29.171 17.6397 29.25 17.4489 29.25 17.25V16.5H31.5V19.5H16.5V16.5H18.75ZM31.5 31.5H16.5V21H31.5V31.5Z" fill="#004BDE"/>
</svg>
