<svg width="48" height="48" viewBox="0 0 48 48" fill="none" xmlns="http://www.w3.org/2000/svg">
<rect width="48" height="48" rx="8" fill="#D9E7FF"/>
<path d="M33.75 31.5C33.75 31.6989 33.671 31.8897 33.5303 32.0303C33.3897 32.171 33.1989 32.25 33 32.25H15C14.8011 32.25 14.6103 32.171 14.4697 32.0303C14.329 31.8897 14.25 31.6989 14.25 31.5V16.5C14.25 16.3011 14.329 16.1103 14.4697 15.9697C14.6103 15.829 14.8011 15.75 15 15.75C15.1989 15.75 15.3897 15.829 15.5303 15.9697C15.671 16.1103 15.75 16.3011 15.75 16.5V26.6897L20.4694 21.9694C20.539 21.8996 20.6217 21.8443 20.7128 21.8066C20.8038 21.7688 20.9014 21.7494 21 21.7494C21.0986 21.7494 21.1962 21.7688 21.2872 21.8066C21.3783 21.8443 21.461 21.8996 21.5306 21.9694L24 24.4397L28.9397 19.5H27C26.8011 19.5 26.6103 19.421 26.4697 19.2803C26.329 19.1397 26.25 18.9489 26.25 18.75C26.25 18.5511 26.329 18.3603 26.4697 18.2197C26.6103 18.079 26.8011 18 27 18H30.75C30.9489 18 31.1397 18.079 31.2803 18.2197C31.421 18.3603 31.5 18.5511 31.5 18.75V22.5C31.5 22.6989 31.421 22.8897 31.2803 23.0303C31.1397 23.171 30.9489 23.25 30.75 23.25C30.5511 23.25 30.3603 23.171 30.2197 23.0303C30.079 22.8897 30 22.6989 30 22.5V20.5603L24.5306 26.0306C24.461 26.1004 24.3783 26.1557 24.2872 26.1934C24.1962 26.2312 24.0986 26.2506 24 26.2506C23.9014 26.2506 23.8038 26.2312 23.7128 26.1934C23.6217 26.1557 23.539 26.1004 23.4694 26.0306L21 23.5603L15.75 28.8103V30.75H33C33.1989 30.75 33.3897 30.829 33.5303 30.9697C33.671 31.1103 33.75 31.3011 33.75 31.5Z" fill="#004BDE"/>
</svg>
