<svg width="48" height="48" viewBox="0 0 48 48" fill="none" xmlns="http://www.w3.org/2000/svg">
<rect width="48" height="48" rx="8" fill="#D9E7FF"/>
<path d="M32.9999 16.5V31.5C32.9999 31.8978 32.8419 32.2794 32.5606 32.5607C32.2793 32.842 31.8978 33 31.4999 33H24.7499C24.551 33 24.3603 32.921 24.2196 32.7803C24.0789 32.6397 23.9999 32.4489 23.9999 32.25C23.9999 32.0511 24.0789 31.8603 24.2196 31.7197C24.3603 31.579 24.551 31.5 24.7499 31.5H31.4999V16.5H16.4999V25.5C16.4999 25.6989 16.4209 25.8897 16.2803 26.0303C16.1396 26.171 15.9488 26.25 15.7499 26.25C15.551 26.25 15.3603 26.171 15.2196 26.0303C15.0789 25.8897 14.9999 25.6989 14.9999 25.5V16.5C14.9999 16.1022 15.158 15.7206 15.4393 15.4393C15.7206 15.158 16.1021 15 16.4999 15H31.4999C31.8978 15 32.2793 15.158 32.5606 15.4393C32.8419 15.7206 32.9999 16.1022 32.9999 16.5ZM23.7806 26.4694C23.7109 26.3996 23.6282 26.3443 23.5371 26.3066C23.4461 26.2688 23.3485 26.2494 23.2499 26.2494C23.1514 26.2494 23.0538 26.2688 22.9627 26.3066C22.8717 26.3443 22.789 26.3996 22.7193 26.4694L17.9999 31.1897L16.2806 29.4694C16.2109 29.3997 16.1281 29.3444 16.0371 29.3067C15.9461 29.269 15.8485 29.2496 15.7499 29.2496C15.6514 29.2496 15.5538 29.269 15.4628 29.3067C15.3717 29.3444 15.289 29.3997 15.2193 29.4694C15.1496 29.5391 15.0943 29.6218 15.0566 29.7128C15.0189 29.8039 14.9995 29.9015 14.9995 30C14.9995 30.0985 15.0189 30.1961 15.0566 30.2872C15.0943 30.3782 15.1496 30.4609 15.2193 30.5306L17.4693 32.7806C17.539 32.8504 17.6217 32.9057 17.7127 32.9434C17.8038 32.9812 17.9014 33.0006 17.9999 33.0006C18.0985 33.0006 18.1961 32.9812 18.2871 32.9434C18.3782 32.9057 18.4609 32.8504 18.5306 32.7806L23.7806 27.5306C23.8503 27.461 23.9056 27.3783 23.9433 27.2872C23.9811 27.1962 24.0005 27.0986 24.0005 27C24.0005 26.9014 23.9811 26.8038 23.9433 26.7128C23.9056 26.6217 23.8503 26.539 23.7806 26.4694Z" fill="#004BDE"/>
</svg>
