<svg width="48" height="48" viewBox="0 0 48 48" fill="none" xmlns="http://www.w3.org/2000/svg">
<rect width="48" height="48" rx="8" fill="#D9E7FF"/>
<path d="M14.2501 23.9999C14.2521 22.2103 14.9639 20.4946 16.2293 19.2292C17.4948 17.9637 19.2105 17.2519 21.0001 17.2499H31.1898L30.2195 16.2806C30.0787 16.1398 29.9997 15.949 29.9997 15.7499C29.9997 15.5509 30.0787 15.36 30.2195 15.2193C30.3602 15.0786 30.5511 14.9995 30.7501 14.9995C30.9491 14.9995 31.14 15.0786 31.2807 15.2193L33.5307 17.4693C33.6005 17.539 33.6558 17.6217 33.6935 17.7127C33.7313 17.8038 33.7507 17.9014 33.7507 17.9999C33.7507 18.0985 33.7313 18.1961 33.6935 18.2871C33.6558 18.3782 33.6005 18.4609 33.5307 18.5306L31.2807 20.7806C31.14 20.9213 30.9491 21.0003 30.7501 21.0003C30.5511 21.0003 30.3602 20.9213 30.2195 20.7806C30.0787 20.6398 29.9997 20.449 29.9997 20.2499C29.9997 20.0509 30.0787 19.86 30.2195 19.7193L31.1898 18.7499H21.0001C19.6082 18.7514 18.2737 19.305 17.2894 20.2893C16.3052 21.2735 15.7516 22.608 15.7501 23.9999C15.7501 24.1988 15.6711 24.3896 15.5304 24.5303C15.3898 24.6709 15.199 24.7499 15.0001 24.7499C14.8012 24.7499 14.6104 24.6709 14.4698 24.5303C14.3291 24.3896 14.2501 24.1988 14.2501 23.9999ZM33.0001 23.2499C32.8012 23.2499 32.6104 23.3289 32.4698 23.4696C32.3291 23.6103 32.2501 23.801 32.2501 23.9999C32.2486 25.3919 31.695 26.7264 30.7108 27.7106C29.7265 28.6948 28.392 29.2484 27.0001 29.2499H16.8104L17.7807 28.2806C17.8504 28.2109 17.9057 28.1281 17.9434 28.0371C17.9811 27.9461 18.0005 27.8485 18.0005 27.7499C18.0005 27.6514 17.9811 27.5538 17.9434 27.4628C17.9057 27.3717 17.8504 27.289 17.7807 27.2193C17.711 27.1496 17.6283 27.0943 17.5373 27.0566C17.4462 27.0189 17.3486 26.9995 17.2501 26.9995C17.1516 26.9995 17.054 27.0189 16.9629 27.0566C16.8719 27.0943 16.7892 27.1496 16.7195 27.2193L14.4695 29.4693C14.3997 29.539 14.3444 29.6217 14.3067 29.7127C14.2689 29.8038 14.2495 29.9014 14.2495 29.9999C14.2495 30.0985 14.2689 30.1961 14.3067 30.2871C14.3444 30.3782 14.3997 30.4609 14.4695 30.5306L16.7195 32.7806C16.7892 32.8502 16.8719 32.9055 16.9629 32.9432C17.054 32.9809 17.1516 33.0003 17.2501 33.0003C17.3486 33.0003 17.4462 32.9809 17.5373 32.9432C17.6283 32.9055 17.711 32.8502 17.7807 32.7806C17.8504 32.7109 17.9057 32.6281 17.9434 32.5371C17.9811 32.4461 18.0005 32.3485 18.0005 32.2499C18.0005 32.1514 17.9811 32.0538 17.9434 31.9628C17.9057 31.8717 17.8504 31.789 17.7807 31.7193L16.8104 30.7499H27.0001C28.7897 30.7479 30.5054 30.0361 31.7709 28.7707C33.0363 27.5053 33.7481 25.7895 33.7501 23.9999C33.7501 23.801 33.6711 23.6103 33.5304 23.4696C33.3898 23.3289 33.199 23.2499 33.0001 23.2499Z" fill="#004BDE"/>
</svg>
