<svg width="48" height="48" viewBox="0 0 48 48" fill="none" xmlns="http://www.w3.org/2000/svg">
<rect width="48" height="48" rx="8" fill="#D9E7FF"/>
<path d="M32.25 15H20.25C20.0511 15 19.8603 15.079 19.7197 15.2197C19.579 15.3603 19.5 15.5511 19.5 15.75V19.5H15.75C15.5511 19.5 15.3603 19.579 15.2197 19.7197C15.079 19.8603 15 20.0511 15 20.25V32.25C15 32.4489 15.079 32.6397 15.2197 32.7803C15.3603 32.921 15.5511 33 15.75 33H27.75C27.9489 33 28.1397 32.921 28.2803 32.7803C28.421 32.6397 28.5 32.4489 28.5 32.25V28.5H32.25C32.4489 28.5 32.6397 28.421 32.7803 28.2803C32.921 28.1397 33 27.9489 33 27.75V15.75C33 15.5511 32.921 15.3603 32.7803 15.2197C32.6397 15.079 32.4489 15 32.25 15ZM27 31.5H16.5V21H27V31.5ZM31.5 27H28.5V20.25C28.5 20.0511 28.421 19.8603 28.2803 19.7197C28.1397 19.579 27.9489 19.5 27.75 19.5H21V16.5H31.5V27Z" fill="#004BDE"/>
</svg>
