<svg width="48" height="48" viewBox="0 0 48 48" fill="none" xmlns="http://www.w3.org/2000/svg">
<rect width="48" height="48" rx="8" fill="#D9E7FF"/>
<path d="M28.5001 33.75C28.5001 33.9489 28.4211 34.1396 28.2805 34.2803C28.1398 34.4209 27.949 34.5 27.7501 34.5H20.2501C20.0512 34.5 19.8604 34.4209 19.7198 34.2803C19.5791 34.1396 19.5001 33.9489 19.5001 33.75C19.5001 33.551 19.5791 33.3603 19.7198 33.2196C19.8604 33.079 20.0512 33 20.2501 33H27.7501C27.949 33 28.1398 33.079 28.2805 33.2196C28.4211 33.3603 28.5001 33.551 28.5001 33.75ZM32.2501 21.75C32.2534 23.0002 31.9709 24.2347 31.4243 25.3592C30.8778 26.4837 30.0815 27.4685 29.0964 28.2384C28.9122 28.3796 28.7627 28.561 28.6593 28.7688C28.556 28.9767 28.5015 29.2054 28.5001 29.4375V30C28.5001 30.3978 28.3421 30.7793 28.0608 31.0606C27.7795 31.3419 27.3979 31.5 27.0001 31.5H21.0001C20.6023 31.5 20.2208 31.3419 19.9395 31.0606C19.6582 30.7793 19.5001 30.3978 19.5001 30V29.4375C19.5 29.2081 19.4472 28.9819 19.346 28.7762C19.2447 28.5704 19.0977 28.3906 18.9161 28.2506C17.9334 27.4852 17.1377 26.5064 16.5892 25.3881C16.0407 24.2698 15.7537 23.0414 15.7501 21.7959C15.7257 17.3278 19.337 13.6068 23.8014 13.5C24.9014 13.4734 25.9956 13.6673 27.0196 14.07C28.0436 14.4727 28.9767 15.0762 29.7639 15.8449C30.5512 16.6137 31.1767 17.5321 31.6037 18.5462C32.0306 19.5603 32.2504 20.6496 32.2501 21.75ZM30.7501 21.75C30.7504 20.8496 30.5705 19.9584 30.2212 19.1286C29.8718 18.2988 29.3599 17.5473 28.7158 16.9184C28.0716 16.2894 27.3081 15.7956 26.4702 15.4662C25.6324 15.1367 24.7371 14.9782 23.837 15C20.1807 15.0862 17.2304 18.1303 17.2501 21.7865C17.2535 22.8052 17.4886 23.8097 17.9375 24.7242C18.3865 25.6386 19.0375 26.4389 19.8414 27.0646C20.2027 27.3456 20.495 27.7054 20.6959 28.1167C20.8967 28.528 21.0008 28.9798 21.0001 29.4375V30H27.0001V29.4375C27.0012 28.9785 27.107 28.5257 27.3096 28.1139C27.5122 27.702 27.8062 27.3419 28.1692 27.0609C28.9755 26.4307 29.6272 25.6247 30.0745 24.7042C30.5218 23.7838 30.7529 22.7733 30.7501 21.75ZM29.2398 20.8743C29.0453 19.788 28.5227 18.7874 27.7423 18.0072C26.9619 17.2269 25.9611 16.7045 24.8748 16.5103C24.7777 16.4939 24.6783 16.4968 24.5823 16.5189C24.4862 16.5409 24.3955 16.5816 24.3153 16.6387C24.235 16.6959 24.1668 16.7682 24.1145 16.8517C24.0622 16.9352 24.0268 17.0281 24.0104 17.1253C23.9941 17.2224 23.997 17.3218 24.019 17.4178C24.0411 17.5138 24.0818 17.6046 24.1389 17.6848C24.196 17.7651 24.2684 17.8333 24.3519 17.8856C24.4353 17.9379 24.5283 17.9733 24.6254 17.9896C26.1789 18.2512 27.497 19.5693 27.7604 21.1256C27.7901 21.3003 27.8807 21.4588 28.0161 21.5731C28.1515 21.6874 28.3229 21.75 28.5001 21.75C28.5425 21.7497 28.5848 21.7463 28.6267 21.7396C28.8227 21.7062 28.9974 21.5962 29.1124 21.4339C29.2274 21.2717 29.2732 21.0704 29.2398 20.8743Z" fill="#004BDE"/>
</svg>
