<svg width="48" height="48" viewBox="0 0 48 48" fill="none" xmlns="http://www.w3.org/2000/svg">
<rect width="48" height="48" rx="8" fill="#D9E7FF"/>
<path d="M33.5306 17.4695L30.5306 14.4695C30.461 14.3997 30.3783 14.3444 30.2872 14.3067C30.1962 14.2689 30.0986 14.2495 30 14.2495C29.9014 14.2495 29.8038 14.2689 29.7128 14.3067C29.6217 14.3444 29.539 14.3997 29.4694 14.4695L20.4694 23.4695C20.3997 23.5392 20.3445 23.6219 20.3069 23.713C20.2693 23.804 20.2499 23.9016 20.25 24.0001V27.0001C20.25 27.199 20.329 27.3898 20.4697 27.5304C20.6103 27.6711 20.8011 27.7501 21 27.7501H24C24.0985 27.7502 24.1961 27.7308 24.2871 27.6932C24.3782 27.6556 24.4609 27.6004 24.5306 27.5307L33.5306 18.5307C33.6004 18.4611 33.6557 18.3784 33.6934 18.2873C33.7312 18.1963 33.7506 18.0987 33.7506 18.0001C33.7506 17.9015 33.7312 17.8039 33.6934 17.7129C33.6557 17.6218 33.6004 17.5391 33.5306 17.4695ZM23.6897 26.2501H21.75V24.3104L27.75 18.3104L29.6897 20.2501L23.6897 26.2501ZM30.75 19.1898L28.8103 17.2501L30 16.0604L31.9397 18.0001L30.75 19.1898ZM33 24.0001V31.5001C33 31.8979 32.842 32.2795 32.5607 32.5608C32.2794 32.8421 31.8978 33.0001 31.5 33.0001H16.5C16.1022 33.0001 15.7206 32.8421 15.4393 32.5608C15.158 32.2795 15 31.8979 15 31.5001V16.5001C15 16.1023 15.158 15.7207 15.4393 15.4394C15.7206 15.1581 16.1022 15.0001 16.5 15.0001H24C24.1989 15.0001 24.3897 15.0791 24.5303 15.2198C24.671 15.3604 24.75 15.5512 24.75 15.7501C24.75 15.949 24.671 16.1398 24.5303 16.2804C24.3897 16.4211 24.1989 16.5001 24 16.5001H16.5V31.5001H31.5V24.0001C31.5 23.8012 31.579 23.6104 31.7197 23.4698C31.8603 23.3291 32.0511 23.2501 32.25 23.2501C32.4489 23.2501 32.6397 23.3291 32.7803 23.4698C32.921 23.6104 33 23.8012 33 24.0001Z" fill="#004BDE"/>
</svg>
