<svg width="48" height="48" viewBox="0 0 48 48" fill="none" xmlns="http://www.w3.org/2000/svg">
<rect width="48" height="48" rx="8" fill="#D9E7FF"/>
<path d="M34.5 30H33.75V27.75C33.75 27.5511 33.671 27.3603 33.5303 27.2197C33.3897 27.079 33.1989 27 33 27H27C26.8011 27 26.6103 27.079 26.4697 27.2197C26.329 27.3603 26.25 27.5511 26.25 27.75V30H15.75V17.25H32.25V24.75C32.25 24.9489 32.329 25.1397 32.4697 25.2803C32.6103 25.421 32.8011 25.5 33 25.5C33.1989 25.5 33.3897 25.421 33.5303 25.2803C33.671 25.1397 33.75 24.9489 33.75 24.75V17.25C33.75 16.8522 33.592 16.4706 33.3107 16.1893C33.0294 15.908 32.6478 15.75 32.25 15.75H15.75C15.3522 15.75 14.9706 15.908 14.6893 16.1893C14.408 16.4706 14.25 16.8522 14.25 17.25V30H13.5C13.3011 30 13.1103 30.079 12.9697 30.2197C12.829 30.3603 12.75 30.5511 12.75 30.75C12.75 30.9489 12.829 31.1397 12.9697 31.2803C13.1103 31.421 13.3011 31.5 13.5 31.5H34.5C34.6989 31.5 34.8897 31.421 35.0303 31.2803C35.171 31.1397 35.25 30.9489 35.25 30.75C35.25 30.5511 35.171 30.3603 35.0303 30.2197C34.8897 30.079 34.6989 30 34.5 30ZM27.75 28.5H32.25V30H27.75V28.5Z" fill="#004BDE"/>
</svg>
