<svg width="48" height="48" viewBox="0 0 48 48" fill="none" xmlns="http://www.w3.org/2000/svg">
<rect width="48" height="48" rx="8" fill="#D9E7FF"/>
<path d="M35.1853 23.6962C35.1525 23.6222 34.3584 21.8606 32.5931 20.0953C30.2409 17.7431 27.27 16.5 24 16.5C20.73 16.5 17.7591 17.7431 15.4069 20.0953C13.6416 21.8606 12.8437 23.625 12.8147 23.6962C12.772 23.7922 12.75 23.896 12.75 24.0009C12.75 24.1059 12.772 24.2097 12.8147 24.3056C12.8475 24.3797 13.6416 26.1403 15.4069 27.9056C17.7591 30.2569 20.73 31.5 24 31.5C27.27 31.5 30.2409 30.2569 32.5931 27.9056C34.3584 26.1403 35.1525 24.3797 35.1853 24.3056C35.2279 24.2097 35.25 24.1059 35.25 24.0009C35.25 23.896 35.2279 23.7922 35.1853 23.6962ZM24 30C21.1144 30 18.5934 28.9509 16.5066 26.8828C15.6503 26.0313 14.9218 25.0603 14.3437 24C14.9216 22.9396 15.6501 21.9686 16.5066 21.1172C18.5934 19.0491 21.1144 18 24 18C26.8856 18 29.4066 19.0491 31.4934 21.1172C32.3514 21.9684 33.0814 22.9394 33.6609 24C32.985 25.2619 30.0403 30 24 30ZM24 19.5C23.11 19.5 22.2399 19.7639 21.4999 20.2584C20.7599 20.7529 20.1831 21.4557 19.8425 22.2779C19.5019 23.1002 19.4128 24.005 19.5865 24.8779C19.7601 25.7508 20.1887 26.5526 20.818 27.182C21.4473 27.8113 22.2492 28.2399 23.1221 28.4135C23.995 28.5872 24.8998 28.4981 25.7221 28.1575C26.5443 27.8169 27.2471 27.2401 27.7416 26.5001C28.2361 25.76 28.5 24.89 28.5 24C28.4987 22.8069 28.0242 21.663 27.1806 20.8194C26.337 19.9757 25.1931 19.5012 24 19.5ZM24 27C23.4066 27 22.8266 26.8241 22.3333 26.4944C21.8399 26.1648 21.4554 25.6962 21.2284 25.1481C21.0013 24.5999 20.9419 23.9967 21.0576 23.4147C21.1734 22.8328 21.4591 22.2982 21.8787 21.8787C22.2982 21.4591 22.8328 21.1734 23.4147 21.0576C23.9967 20.9419 24.5999 21.0013 25.148 21.2284C25.6962 21.4554 26.1648 21.8399 26.4944 22.3333C26.824 22.8266 27 23.4067 27 24C27 24.7956 26.6839 25.5587 26.1213 26.1213C25.5587 26.6839 24.7956 27 24 27Z" fill="#004BDE"/>
</svg>
