<svg width="48" height="48" viewBox="0 0 48 48" fill="none" xmlns="http://www.w3.org/2000/svg">
<rect width="48" height="48" rx="8" fill="#D9E7FF"/>
<path d="M32.25 24V31.5C32.25 31.8978 32.092 32.2794 31.8107 32.5607C31.5294 32.842 31.1478 33 30.75 33H16.5C16.1022 33 15.7206 32.842 15.4393 32.5607C15.158 32.2794 15 31.8978 15 31.5V17.25C15 16.8522 15.158 16.4706 15.4393 16.1893C15.7206 15.908 16.1022 15.75 16.5 15.75H24C24.1989 15.75 24.3897 15.829 24.5303 15.9697C24.671 16.1103 24.75 16.3011 24.75 16.5C24.75 16.6989 24.671 16.8897 24.5303 17.0303C24.3897 17.171 24.1989 17.25 24 17.25H16.5V31.5H30.75V24C30.75 23.8011 30.829 23.6103 30.9697 23.4697C31.1103 23.329 31.3011 23.25 31.5 23.25C31.6989 23.25 31.8897 23.329 32.0303 23.4697C32.171 23.6103 32.25 23.8011 32.25 24ZM33.75 17.625C33.75 18.2925 33.5521 18.945 33.1812 19.5C32.8104 20.0551 32.2833 20.4876 31.6666 20.7431C31.0499 20.9985 30.3713 21.0654 29.7166 20.9352C29.0619 20.8049 28.4605 20.4835 27.9885 20.0115C27.5165 19.5395 27.1951 18.9381 27.0648 18.2834C26.9346 17.6287 27.0015 16.9501 27.2569 16.3334C27.5124 15.7167 27.9449 15.1896 28.5 14.8188C29.055 14.4479 29.7075 14.25 30.375 14.25C31.2701 14.25 32.1285 14.6056 32.7615 15.2385C33.3944 15.8714 33.75 16.7299 33.75 17.625ZM32.25 17.625C32.25 17.2542 32.14 16.8916 31.934 16.5833C31.728 16.275 31.4351 16.0346 31.0925 15.8927C30.7499 15.7508 30.3729 15.7137 30.0092 15.786C29.6455 15.8584 29.3114 16.037 29.0492 16.2992C28.787 16.5614 28.6084 16.8955 28.536 17.2592C28.4637 17.6229 28.5008 17.9999 28.6427 18.3425C28.7846 18.6851 29.025 18.978 29.3333 19.184C29.6416 19.39 30.0042 19.5 30.375 19.5C30.8723 19.5 31.3492 19.3025 31.7008 18.9508C32.0525 18.5992 32.25 18.1223 32.25 17.625Z" fill="#004BDE"/>
</svg>
