<svg width="48" height="48" viewBox="0 0 48 48" fill="none" xmlns="http://www.w3.org/2000/svg">
<rect width="48" height="48" rx="8" fill="#D9E7FF"/>
<path d="M31.5 22.5001C30.8521 22.5012 30.2218 22.7118 29.7033 23.1004C29.1848 23.489 28.8058 24.0348 28.6228 24.6564L24.6656 24.0939C24.4852 24.0684 24.3203 23.978 24.2016 23.8398L20.8528 19.9267C21.4794 19.6091 21.9746 19.0818 22.2523 18.4366C22.5299 17.7914 22.5724 17.0692 22.3722 16.3959C22.1721 15.7226 21.742 15.1409 21.157 14.7521C20.572 14.3634 19.8691 14.1922 19.1708 14.2685C18.4726 14.3447 17.8232 14.6636 17.3359 15.1695C16.8486 15.6754 16.5543 16.3362 16.5042 17.0369C16.4541 17.7375 16.6515 18.4335 17.0619 19.0035C17.4723 19.5736 18.0697 19.9816 18.75 20.1564V27.8439C18.043 28.0264 17.4269 28.4605 17.0171 29.0649C16.6073 29.6692 16.4319 30.4022 16.5239 31.1266C16.6159 31.851 16.969 32.5169 17.5168 32.9996C18.0647 33.4823 18.7698 33.7486 19.5 33.7486C20.2302 33.7486 20.9353 33.4823 21.4832 32.9996C22.0311 32.5169 22.3841 31.851 22.4761 31.1266C22.5681 30.4022 22.3928 29.6692 21.983 29.0649C21.5732 28.4605 20.957 28.0264 20.25 27.8439V21.5279L23.0625 24.8092C23.418 25.2239 23.9121 25.4951 24.4528 25.5723L28.5778 26.161C28.7023 26.7123 28.98 27.2172 29.379 27.6176C29.7779 28.0179 30.2818 28.2975 30.8326 28.424C31.3834 28.5505 31.9588 28.5188 32.4924 28.3326C33.026 28.1465 33.4962 27.8133 33.8488 27.3716C34.2013 26.9299 34.422 26.3976 34.4853 25.836C34.5485 25.2744 34.4519 24.7063 34.2064 24.1972C33.961 23.6881 33.5767 23.2587 33.0979 22.9585C32.6191 22.6582 32.0652 22.4993 31.5 22.5001ZM18 17.2501C18 16.9534 18.088 16.6634 18.2528 16.4168C18.4176 16.1701 18.6519 15.9778 18.926 15.8643C19.2001 15.7508 19.5017 15.7211 19.7926 15.7789C20.0836 15.8368 20.3509 15.9797 20.5607 16.1894C20.7705 16.3992 20.9133 16.6665 20.9712 16.9575C21.0291 17.2484 20.9994 17.55 20.8858 17.8241C20.7723 18.0982 20.58 18.3325 20.3334 18.4973C20.0867 18.6621 19.7967 18.7501 19.5 18.7501C19.1022 18.7501 18.7207 18.5921 18.4394 18.3108C18.158 18.0295 18 17.6479 18 17.2501ZM21 30.7501C21 31.0468 20.912 31.3368 20.7472 31.5835C20.5824 31.8301 20.3481 32.0224 20.074 32.1359C19.7999 32.2495 19.4983 32.2792 19.2074 32.2213C18.9164 32.1634 18.6491 32.0205 18.4394 31.8108C18.2296 31.601 18.0867 31.3337 18.0288 31.0427C17.971 30.7518 18.0007 30.4502 18.1142 30.1761C18.2277 29.902 18.42 29.6677 18.6667 29.5029C18.9133 29.3381 19.2033 29.2501 19.5 29.2501C19.8978 29.2501 20.2794 29.4081 20.5607 29.6894C20.842 29.9708 21 30.3523 21 30.7501ZM31.5 27.0001C31.2033 27.0001 30.9133 26.9121 30.6667 26.7473C30.42 26.5825 30.2277 26.3482 30.1142 26.0741C30.0007 25.8 29.971 25.4984 30.0288 25.2075C30.0867 24.9165 30.2296 24.6492 30.4394 24.4394C30.6491 24.2297 30.9164 24.0868 31.2074 24.0289C31.4983 23.9711 31.7999 24.0008 32.074 24.1143C32.3481 24.2278 32.5824 24.4201 32.7472 24.6668C32.912 24.9134 33 25.2034 33 25.5001C33 25.8979 32.842 26.2795 32.5607 26.5608C32.2794 26.8421 31.8978 27.0001 31.5 27.0001Z" fill="#004BDE"/>
</svg>
