<svg width="20" height="20" viewBox="0 0 20 20" fill="none" xmlns="http://www.w3.org/2000/svg">
<path d="M17.5 11.25V16.25C17.5 16.4158 17.4342 16.5747 17.3169 16.6919C17.1997 16.8092 17.0408 16.875 16.875 16.875H3.125C2.95924 16.875 2.80027 16.8092 2.68306 16.6919C2.56585 16.5747 2.5 16.4158 2.5 16.25V11.25C2.5 11.0842 2.56585 10.9253 2.68306 10.8081C2.80027 10.6909 2.95924 10.625 3.125 10.625C3.29076 10.625 3.44973 10.6909 3.56694 10.8081C3.68415 10.9253 3.75 11.0842 3.75 11.25V15.625H16.25V11.25C16.25 11.0842 16.3158 10.9253 16.4331 10.8081C16.5503 10.6909 16.7092 10.625 16.875 10.625C17.0408 10.625 17.1997 10.6909 17.3169 10.8081C17.4342 10.9253 17.5 11.0842 17.5 11.25ZM7.31719 6.06719L9.375 4.0086V11.25C9.375 11.4158 9.44085 11.5747 9.55806 11.6919C9.67527 11.8092 9.83424 11.875 10 11.875C10.1658 11.875 10.3247 11.8092 10.4419 11.6919C10.5592 11.5747 10.625 11.4158 10.625 11.25V4.0086L12.6828 6.06719C12.8001 6.18447 12.9591 6.25035 13.125 6.25035C13.2909 6.25035 13.4499 6.18447 13.5672 6.06719C13.6845 5.94992 13.7503 5.79086 13.7503 5.625C13.7503 5.45915 13.6845 5.30009 13.5672 5.18282L10.4422 2.05782C10.3841 1.99971 10.3152 1.95361 10.2393 1.92215C10.1635 1.8907 10.0821 1.87451 10 1.87451C9.91787 1.87451 9.83654 1.8907 9.76066 1.92215C9.68479 1.95361 9.61586 1.99971 9.55781 2.05782L6.43281 5.18282C6.31554 5.30009 6.24965 5.45915 6.24965 5.625C6.24965 5.79086 6.31554 5.94992 6.43281 6.06719C6.55009 6.18447 6.70915 6.25035 6.875 6.25035C7.04085 6.25035 7.19991 6.18447 7.31719 6.06719Z" fill="#40B6FF"/>
</svg>
