<svg width="21" height="20" viewBox="0 0 21 20" fill="none" xmlns="http://www.w3.org/2000/svg">
<path d="M3 5C3 4.83424 3.06585 4.67527 3.18306 4.55806C3.30027 4.44085 3.45924 4.375 3.625 4.375H17.375C17.5408 4.375 17.6997 4.44085 17.8169 4.55806C17.9342 4.67527 18 4.83424 18 5C18 5.16576 17.9342 5.32473 17.8169 5.44194C17.6997 5.55915 17.5408 5.625 17.375 5.625H3.625C3.45924 5.625 3.30027 5.55915 3.18306 5.44194C3.06585 5.32473 3 5.16576 3 5ZM11.125 9.375H3.625C3.45924 9.375 3.30027 9.44085 3.18306 9.55806C3.06585 9.67527 3 9.83424 3 10C3 10.1658 3.06585 10.3247 3.18306 10.4419C3.30027 10.5592 3.45924 10.625 3.625 10.625H11.125C11.2908 10.625 11.4497 10.5592 11.5669 10.4419C11.6842 10.3247 11.75 10.1658 11.75 10C11.75 9.83424 11.6842 9.67527 11.5669 9.55806C11.4497 9.44085 11.2908 9.375 11.125 9.375ZM11.125 14.375H3.625C3.45924 14.375 3.30027 14.4408 3.18306 14.5581C3.06585 14.6753 3 14.8342 3 15C3 15.1658 3.06585 15.3247 3.18306 15.4419C3.30027 15.5592 3.45924 15.625 3.625 15.625H11.125C11.2908 15.625 11.4497 15.5592 11.5669 15.4419C11.6842 15.3247 11.75 15.1658 11.75 15C11.75 14.8342 11.6842 14.6753 11.5669 14.5581C11.4497 14.4408 11.2908 14.375 11.125 14.375ZM19.875 12.5C19.8749 12.606 19.848 12.7101 19.7966 12.8028C19.7452 12.8955 19.6711 12.9735 19.5813 13.0297L14.5813 16.1547C14.4867 16.2138 14.378 16.2465 14.2665 16.2495C14.155 16.2524 14.0447 16.2255 13.9472 16.1714C13.8496 16.1174 13.7683 16.0382 13.7116 15.9421C13.655 15.846 13.6251 15.7365 13.625 15.625V9.375C13.6251 9.26346 13.655 9.15397 13.7116 9.05789C13.7683 8.9618 13.8496 8.88263 13.9472 8.82858C14.0447 8.77454 14.155 8.74759 14.2665 8.75053C14.378 8.75347 14.4867 8.7862 14.5813 8.84531L19.5813 11.9703C19.6711 12.0265 19.7452 12.1045 19.7966 12.1972C19.848 12.2899 19.8749 12.394 19.875 12.5ZM18.0711 12.5L14.875 10.5023V14.4977L18.0711 12.5Z" fill="#FF3419"/>
</svg>
