<svg width="21" height="20" viewBox="0 0 21 20" fill="none" xmlns="http://www.w3.org/2000/svg">
<path d="M16.75 2.5H14.875V1.875C14.875 1.70924 14.8092 1.55027 14.6919 1.43306C14.5747 1.31585 14.4158 1.25 14.25 1.25C14.0842 1.25 13.9253 1.31585 13.8081 1.43306C13.6908 1.55027 13.625 1.70924 13.625 1.875V2.5H7.375V1.875C7.375 1.70924 7.30915 1.55027 7.19194 1.43306C7.07473 1.31585 6.91576 1.25 6.75 1.25C6.58424 1.25 6.42527 1.31585 6.30806 1.43306C6.19085 1.55027 6.125 1.70924 6.125 1.875V2.5H4.25C3.91848 2.5 3.60054 2.6317 3.36612 2.86612C3.1317 3.10054 3 3.41848 3 3.75V16.25C3 16.5815 3.1317 16.8995 3.36612 17.1339C3.60054 17.3683 3.91848 17.5 4.25 17.5H16.75C17.0815 17.5 17.3995 17.3683 17.6339 17.1339C17.8683 16.8995 18 16.5815 18 16.25V3.75C18 3.41848 17.8683 3.10054 17.6339 2.86612C17.3995 2.6317 17.0815 2.5 16.75 2.5ZM16.75 16.25H4.25V3.75H6.125V4.375C6.125 4.54076 6.19085 4.69973 6.30806 4.81694C6.42527 4.93415 6.58424 5 6.75 5C6.91576 5 7.07473 4.93415 7.19194 4.81694C7.30915 4.69973 7.375 4.54076 7.375 4.375V3.75H13.625V4.375C13.625 4.54076 13.6908 4.69973 13.8081 4.81694C13.9253 4.93415 14.0842 5 14.25 5C14.4158 5 14.5747 4.93415 14.6919 4.81694C14.8092 4.69973 14.875 4.54076 14.875 4.375V3.75H16.75V16.25ZM12.375 6.875C12.0201 6.8748 11.6692 6.95039 11.3459 7.09671C11.0225 7.24302 10.7341 7.4567 10.5 7.72344C10.1642 7.34271 9.72052 7.07323 9.22787 6.95081C8.73523 6.8284 8.21698 6.85885 7.74207 7.03814C7.26715 7.21742 6.85806 7.53703 6.5692 7.95446C6.28035 8.37189 6.12541 8.86737 6.125 9.375C6.125 12.2281 10.0531 14.225 10.2203 14.3094C10.3071 14.3528 10.4029 14.3754 10.5 14.3754C10.5971 14.3754 10.6929 14.3528 10.7797 14.3094C10.9469 14.225 14.875 12.2281 14.875 9.375C14.875 8.71196 14.6116 8.07607 14.1428 7.60723C13.6739 7.13839 13.038 6.875 12.375 6.875ZM10.5 13.0414C9.42266 12.4328 7.375 10.9516 7.375 9.375C7.375 9.04348 7.5067 8.72554 7.74112 8.49112C7.97554 8.2567 8.29348 8.125 8.625 8.125C8.95652 8.125 9.27446 8.2567 9.50888 8.49112C9.7433 8.72554 9.875 9.04348 9.875 9.375C9.875 9.54076 9.94085 9.69973 10.0581 9.81694C10.1753 9.93415 10.3342 10 10.5 10C10.6658 10 10.8247 9.93415 10.9419 9.81694C11.0592 9.69973 11.125 9.54076 11.125 9.375C11.125 9.04348 11.2567 8.72554 11.4911 8.49112C11.7255 8.2567 12.0435 8.125 12.375 8.125C12.7065 8.125 13.0245 8.2567 13.2589 8.49112C13.4933 8.72554 13.625 9.04348 13.625 9.375C13.625 10.9523 11.5773 12.4336 10.5 13.0414Z" fill="#7830FF"/>
</svg>
